%TF.GenerationSoftware,KiCad,Pcbnew,6.0.9+dfsg-1*%
%TF.CreationDate,2023-01-17T16:08:27-08:00*%
%TF.ProjectId,backup_beeper_kicad,6261636b-7570-45f6-9265-657065725f6b,rev?*%
%TF.SameCoordinates,PX7616b68PY59a0560*%
%TF.FileFunction,Copper,L1,Top*%
%TF.FilePolarity,Positive*%
%FSLAX46Y46*%
G04 Gerber Fmt 4.6, Leading zero omitted, Abs format (unit mm)*
G04 Created by KiCad (PCBNEW 6.0.9+dfsg-1) date 2023-01-17 16:08:27*
%MOMM*%
%LPD*%
G01*
G04 APERTURE LIST*
%TA.AperFunction,ComponentPad*%
%ADD10R,1.600000X1.600000*%
%TD*%
%TA.AperFunction,ComponentPad*%
%ADD11O,1.600000X1.600000*%
%TD*%
%TA.AperFunction,ComponentPad*%
%ADD12R,1.800000X1.800000*%
%TD*%
%TA.AperFunction,ComponentPad*%
%ADD13C,1.800000*%
%TD*%
%TA.AperFunction,ComponentPad*%
%ADD14R,1.700000X1.700000*%
%TD*%
%TA.AperFunction,ComponentPad*%
%ADD15O,1.700000X1.700000*%
%TD*%
%TA.AperFunction,ComponentPad*%
%ADD16C,1.600000*%
%TD*%
%TA.AperFunction,Conductor*%
%ADD17C,1.000000*%
%TD*%
G04 APERTURE END LIST*
D10*
%TO.P,U1,1,~{RESET}/PB5*%
%TO.N,unconnected-(U1-Pad1)*%
X34196666Y-2540000D03*
D11*
%TO.P,U1,2,XTAL1/PB3*%
%TO.N,Net-(BZ1-Pad1)*%
X34196666Y-5080000D03*
%TO.P,U1,3,XTAL2/PB4*%
%TO.N,unconnected-(U1-Pad3)*%
X34196666Y-7620000D03*
%TO.P,U1,4,GND*%
%TO.N,GND*%
X34196666Y-10160000D03*
%TO.P,U1,5,AREF/PB0*%
%TO.N,unconnected-(U1-Pad5)*%
X26576666Y-10160000D03*
%TO.P,U1,6,PB1*%
%TO.N,unconnected-(U1-Pad6)*%
X26576666Y-7620000D03*
%TO.P,U1,7,PB2*%
%TO.N,unconnected-(U1-Pad7)*%
X26576666Y-5080000D03*
%TO.P,U1,8,VCC*%
%TO.N,/VCC*%
X26576666Y-2540000D03*
%TD*%
D12*
%TO.P,SW1,1,A*%
%TO.N,unconnected-(SW1-Pad1)*%
X15875000Y-3927500D03*
D13*
%TO.P,SW1,2,B*%
%TO.N,/4V*%
X15875000Y-6427500D03*
%TO.P,SW1,3,C*%
%TO.N,/VCC*%
X15875000Y-8927500D03*
%TO.P,SW1,4,A*%
%TO.N,unconnected-(SW1-Pad4)*%
X21875000Y-3927500D03*
%TO.P,SW1,5,B*%
%TO.N,unconnected-(SW1-Pad5)*%
X21875000Y-6427500D03*
%TO.P,SW1,6,C*%
%TO.N,unconnected-(SW1-Pad6)*%
X21875000Y-8927500D03*
%TD*%
D14*
%TO.P,J3,1,Pin_1*%
%TO.N,GND*%
X53467000Y-9144000D03*
D15*
%TO.P,J3,2,Pin_2*%
%TO.N,/VCC*%
X53467000Y-6604000D03*
%TD*%
D14*
%TO.P,J2,1,Pin_1*%
%TO.N,GND*%
X3175000Y-6350000D03*
D15*
%TO.P,J2,2,Pin_2*%
%TO.N,/VCC*%
X3175000Y-8890000D03*
%TD*%
D14*
%TO.P,J1,1,Pin_1*%
%TO.N,GND*%
X8255000Y-6350000D03*
D15*
%TO.P,J1,2,Pin_2*%
%TO.N,/4V*%
X10795000Y-6350000D03*
%TD*%
D10*
%TO.P,BZ1,1,-*%
%TO.N,Net-(BZ1-Pad1)*%
X43815000Y-3660000D03*
D16*
%TO.P,BZ1,2,+*%
%TO.N,GND*%
X43815000Y-10160000D03*
%TD*%
D17*
%TO.N,/VCC*%
X53467000Y-6604000D02*
X47703000Y-840000D01*
X47703000Y-840000D02*
X28276666Y-840000D01*
%TO.N,GND*%
X43815000Y-10160000D02*
X52451000Y-10160000D01*
X52451000Y-10160000D02*
X53467000Y-9144000D01*
X3605000Y-11860000D02*
X27280830Y-11860000D01*
X27280830Y-11860000D02*
X28980830Y-10160000D01*
X1425000Y-9680000D02*
X3605000Y-11860000D01*
X1425000Y-8100000D02*
X1425000Y-9680000D01*
X3175000Y-6350000D02*
X1425000Y-8100000D01*
X28980830Y-10160000D02*
X34196666Y-10160000D01*
X8255000Y-6350000D02*
X3175000Y-6350000D01*
%TO.N,/VCC*%
X15875000Y-8927500D02*
X3212500Y-8927500D01*
X3212500Y-8927500D02*
X3175000Y-8890000D01*
%TO.N,/4V*%
X10795000Y-6350000D02*
X15797500Y-6350000D01*
X15797500Y-6350000D02*
X15875000Y-6427500D01*
%TO.N,/VCC*%
X26164166Y-2127500D02*
X21129415Y-2127500D01*
X26576666Y-2540000D02*
X26164166Y-2127500D01*
X21129415Y-2127500D02*
X17675000Y-5581915D01*
X17675000Y-5581915D02*
X17675000Y-8360000D01*
X17675000Y-8360000D02*
X17107500Y-8927500D01*
X17107500Y-8927500D02*
X15875000Y-8927500D01*
X26576666Y-2540000D02*
X28276666Y-840000D01*
%TO.N,GND*%
X34196666Y-10160000D02*
X43815000Y-10160000D01*
%TO.N,Net-(BZ1-Pad1)*%
X34196666Y-5080000D02*
X42395000Y-5080000D01*
X42395000Y-5080000D02*
X43815000Y-3660000D01*
%TD*%
%TA.AperFunction,Conductor*%
%TO.N,GND*%
G36*
X26945862Y-528502D02*
G01*
X26992355Y-582158D01*
X27002459Y-652432D01*
X26972965Y-717012D01*
X26966836Y-723595D01*
X26565156Y-1125275D01*
X26502844Y-1159301D01*
X26437963Y-1156282D01*
X26380736Y-1138129D01*
X26374860Y-1136265D01*
X26369564Y-1135671D01*
X26364468Y-1134113D01*
X26271909Y-1124710D01*
X26270773Y-1124589D01*
X26237158Y-1120819D01*
X26224436Y-1119392D01*
X26224432Y-1119392D01*
X26220939Y-1119000D01*
X26217412Y-1119000D01*
X26216427Y-1118945D01*
X26210747Y-1118498D01*
X26181341Y-1115511D01*
X26173829Y-1114748D01*
X26173827Y-1114748D01*
X26167704Y-1114126D01*
X26125425Y-1118123D01*
X26122057Y-1118441D01*
X26110199Y-1119000D01*
X21191265Y-1119000D01*
X21177657Y-1118263D01*
X21146152Y-1114840D01*
X21146148Y-1114840D01*
X21140027Y-1114175D01*
X21133888Y-1114712D01*
X21133884Y-1114712D01*
X21090004Y-1118551D01*
X21085167Y-1118881D01*
X21082729Y-1119000D01*
X21079646Y-1119000D01*
X21076589Y-1119300D01*
X21076584Y-1119300D01*
X21036995Y-1123182D01*
X21035680Y-1123304D01*
X20949138Y-1130875D01*
X20949136Y-1130875D01*
X20943002Y-1131412D01*
X20937878Y-1132901D01*
X20932582Y-1133420D01*
X20843587Y-1160289D01*
X20842500Y-1160611D01*
X20753079Y-1186591D01*
X20748347Y-1189044D01*
X20743246Y-1190584D01*
X20737803Y-1193478D01*
X20661155Y-1234231D01*
X20659989Y-1234843D01*
X20582962Y-1274771D01*
X20577489Y-1277608D01*
X20573326Y-1280931D01*
X20568619Y-1283434D01*
X20563844Y-1287328D01*
X20563843Y-1287329D01*
X20496517Y-1342239D01*
X20495490Y-1343067D01*
X20459207Y-1372031D01*
X20459202Y-1372036D01*
X20456443Y-1374238D01*
X20453942Y-1376739D01*
X20453224Y-1377381D01*
X20448876Y-1381094D01*
X20415353Y-1408435D01*
X20411430Y-1413177D01*
X20411428Y-1413179D01*
X20386118Y-1443773D01*
X20378128Y-1452553D01*
X17498595Y-4332086D01*
X17436283Y-4366112D01*
X17365468Y-4361047D01*
X17308632Y-4318500D01*
X17283821Y-4251980D01*
X17283500Y-4242991D01*
X17283500Y-2979366D01*
X17276745Y-2917184D01*
X17225615Y-2780795D01*
X17138261Y-2664239D01*
X17021705Y-2576885D01*
X16885316Y-2525755D01*
X16823134Y-2519000D01*
X14926866Y-2519000D01*
X14864684Y-2525755D01*
X14728295Y-2576885D01*
X14611739Y-2664239D01*
X14524385Y-2780795D01*
X14473255Y-2917184D01*
X14466500Y-2979366D01*
X14466500Y-4875634D01*
X14473255Y-4937816D01*
X14524385Y-5074205D01*
X14538739Y-5093357D01*
X14573647Y-5139935D01*
X14598495Y-5206441D01*
X14583442Y-5275824D01*
X14533268Y-5326054D01*
X14472821Y-5341500D01*
X11753799Y-5341500D01*
X11685678Y-5321498D01*
X11675707Y-5314382D01*
X11553414Y-5217800D01*
X11553410Y-5217798D01*
X11549359Y-5214598D01*
X11353789Y-5106638D01*
X11348920Y-5104914D01*
X11348916Y-5104912D01*
X11148087Y-5033795D01*
X11148083Y-5033794D01*
X11143212Y-5032069D01*
X11138119Y-5031162D01*
X11138116Y-5031161D01*
X10928373Y-4993800D01*
X10928367Y-4993799D01*
X10923284Y-4992894D01*
X10849452Y-4991992D01*
X10705081Y-4990228D01*
X10705079Y-4990228D01*
X10699911Y-4990165D01*
X10479091Y-5023955D01*
X10266756Y-5093357D01*
X10236443Y-5109137D01*
X10164862Y-5146400D01*
X10068607Y-5196507D01*
X10064474Y-5199610D01*
X10064471Y-5199612D01*
X9919996Y-5308087D01*
X9889965Y-5330635D01*
X9886393Y-5334373D01*
X9808898Y-5415466D01*
X9747374Y-5450895D01*
X9676462Y-5447438D01*
X9618676Y-5406192D01*
X9599823Y-5372644D01*
X9558324Y-5261946D01*
X9549786Y-5246351D01*
X9473285Y-5144276D01*
X9460724Y-5131715D01*
X9358649Y-5055214D01*
X9343054Y-5046676D01*
X9222606Y-5001522D01*
X9207351Y-4997895D01*
X9156486Y-4992369D01*
X9149672Y-4992000D01*
X8527115Y-4992000D01*
X8511876Y-4996475D01*
X8510671Y-4997865D01*
X8509000Y-5005548D01*
X8509000Y-6478000D01*
X8488998Y-6546121D01*
X8435342Y-6592614D01*
X8383000Y-6604000D01*
X6915116Y-6604000D01*
X6899877Y-6608475D01*
X6898672Y-6609865D01*
X6897001Y-6617548D01*
X6897001Y-7244669D01*
X6897371Y-7251490D01*
X6902895Y-7302352D01*
X6906521Y-7317604D01*
X6951676Y-7438054D01*
X6960214Y-7453649D01*
X7036715Y-7555724D01*
X7049276Y-7568285D01*
X7151351Y-7644786D01*
X7166946Y-7653324D01*
X7224814Y-7675018D01*
X7281578Y-7717660D01*
X7306278Y-7784221D01*
X7291070Y-7853570D01*
X7240784Y-7903688D01*
X7180584Y-7919000D01*
X4249416Y-7919000D01*
X4181295Y-7898998D01*
X4134802Y-7845342D01*
X4124698Y-7775068D01*
X4154192Y-7710488D01*
X4205186Y-7675018D01*
X4263054Y-7653324D01*
X4278649Y-7644786D01*
X4380724Y-7568285D01*
X4393285Y-7555724D01*
X4469786Y-7453649D01*
X4478324Y-7438054D01*
X4523478Y-7317606D01*
X4527105Y-7302351D01*
X4532631Y-7251486D01*
X4533000Y-7244672D01*
X4533000Y-6622115D01*
X4528525Y-6606876D01*
X4527135Y-6605671D01*
X4519452Y-6604000D01*
X1835116Y-6604000D01*
X1819877Y-6608475D01*
X1818672Y-6609865D01*
X1817001Y-6617548D01*
X1817001Y-7244669D01*
X1817371Y-7251490D01*
X1822895Y-7302352D01*
X1826521Y-7317604D01*
X1871676Y-7438054D01*
X1880214Y-7453649D01*
X1956715Y-7555724D01*
X1969276Y-7568285D01*
X2071351Y-7644786D01*
X2086946Y-7653324D01*
X2195827Y-7694142D01*
X2252591Y-7736784D01*
X2277291Y-7803345D01*
X2262083Y-7872694D01*
X2242691Y-7899175D01*
X2179068Y-7965753D01*
X2115629Y-8032138D01*
X2112715Y-8036410D01*
X2112714Y-8036411D01*
X2090318Y-8069243D01*
X1989743Y-8216680D01*
X1948267Y-8306033D01*
X1898958Y-8412261D01*
X1895688Y-8419305D01*
X1835989Y-8634570D01*
X1812251Y-8856695D01*
X1812548Y-8861848D01*
X1812548Y-8861851D01*
X1820791Y-9004814D01*
X1825110Y-9079715D01*
X1826247Y-9084761D01*
X1826248Y-9084767D01*
X1841181Y-9151028D01*
X1874222Y-9297639D01*
X1958266Y-9504616D01*
X1960965Y-9509020D01*
X2062001Y-9673896D01*
X2074987Y-9695088D01*
X2221250Y-9863938D01*
X2393126Y-10006632D01*
X2586000Y-10119338D01*
X2794692Y-10199030D01*
X2799760Y-10200061D01*
X2799763Y-10200062D01*
X2907017Y-10221883D01*
X3013597Y-10243567D01*
X3018772Y-10243757D01*
X3018774Y-10243757D01*
X3231673Y-10251564D01*
X3231677Y-10251564D01*
X3236837Y-10251753D01*
X3241957Y-10251097D01*
X3241959Y-10251097D01*
X3453288Y-10224025D01*
X3453289Y-10224025D01*
X3458416Y-10223368D01*
X3529359Y-10202084D01*
X3667429Y-10160661D01*
X3667434Y-10160659D01*
X3672384Y-10159174D01*
X3872994Y-10060896D01*
X3965956Y-9994587D01*
X4015258Y-9959421D01*
X4088426Y-9936000D01*
X14839114Y-9936000D01*
X14907235Y-9956002D01*
X14919595Y-9965053D01*
X15064349Y-10085230D01*
X15264322Y-10202084D01*
X15480694Y-10284709D01*
X15485760Y-10285740D01*
X15485761Y-10285740D01*
X15538846Y-10296540D01*
X15707656Y-10330885D01*
X15838324Y-10335676D01*
X15933949Y-10339183D01*
X15933953Y-10339183D01*
X15939113Y-10339372D01*
X15944233Y-10338716D01*
X15944235Y-10338716D01*
X16017270Y-10329360D01*
X16168847Y-10309942D01*
X16173795Y-10308457D01*
X16173802Y-10308456D01*
X16385747Y-10244869D01*
X16390690Y-10243386D01*
X16431552Y-10223368D01*
X16594049Y-10143762D01*
X16594052Y-10143760D01*
X16598684Y-10141491D01*
X16787243Y-10006994D01*
X16790900Y-10003350D01*
X16790906Y-10003345D01*
X16821609Y-9972749D01*
X16883980Y-9938833D01*
X16910548Y-9936000D01*
X17045657Y-9936000D01*
X17059264Y-9936737D01*
X17090762Y-9940159D01*
X17090767Y-9940159D01*
X17096888Y-9940824D01*
X17123138Y-9938527D01*
X17146888Y-9936450D01*
X17151714Y-9936121D01*
X17154186Y-9936000D01*
X17157269Y-9936000D01*
X17169238Y-9934826D01*
X17200006Y-9931810D01*
X17201319Y-9931688D01*
X17245584Y-9927815D01*
X17293913Y-9923587D01*
X17299032Y-9922100D01*
X17304333Y-9921580D01*
X17393334Y-9894709D01*
X17394467Y-9894374D01*
X17477914Y-9870130D01*
X17477918Y-9870128D01*
X17483836Y-9868409D01*
X17488568Y-9865956D01*
X17493669Y-9864416D01*
X17532998Y-9843505D01*
X17575760Y-9820769D01*
X17576926Y-9820157D01*
X17653953Y-9780229D01*
X17659426Y-9777392D01*
X17663589Y-9774069D01*
X17668296Y-9771566D01*
X17740418Y-9712745D01*
X17741274Y-9712054D01*
X17780473Y-9680762D01*
X17782977Y-9678258D01*
X17783695Y-9677616D01*
X17788028Y-9673915D01*
X17821562Y-9646565D01*
X17850788Y-9611236D01*
X17858779Y-9602455D01*
X18344379Y-9116855D01*
X18354522Y-9107753D01*
X18379218Y-9087897D01*
X18384025Y-9084032D01*
X18416292Y-9045578D01*
X18419472Y-9041931D01*
X18421115Y-9040119D01*
X18423309Y-9037925D01*
X18450642Y-9004651D01*
X18451348Y-9003800D01*
X18488743Y-8959235D01*
X18511154Y-8932526D01*
X18513722Y-8927856D01*
X18517103Y-8923739D01*
X18560977Y-8841914D01*
X18561606Y-8840755D01*
X18603462Y-8764619D01*
X18603465Y-8764611D01*
X18606433Y-8759213D01*
X18608045Y-8754131D01*
X18610562Y-8749437D01*
X18637762Y-8660469D01*
X18638108Y-8659358D01*
X18645972Y-8634570D01*
X18666235Y-8570694D01*
X18666829Y-8565398D01*
X18668387Y-8560302D01*
X18677790Y-8467743D01*
X18677911Y-8466607D01*
X18683500Y-8416773D01*
X18683500Y-8413246D01*
X18683555Y-8412261D01*
X18684002Y-8406581D01*
X18688374Y-8363538D01*
X18684059Y-8317891D01*
X18683500Y-8306033D01*
X18683500Y-6051840D01*
X18703502Y-5983719D01*
X18720405Y-5962745D01*
X20336158Y-4346992D01*
X20398470Y-4312966D01*
X20469285Y-4318031D01*
X20526121Y-4360578D01*
X20541996Y-4388682D01*
X20613484Y-4564737D01*
X20734501Y-4762219D01*
X20886147Y-4937284D01*
X21059725Y-5081391D01*
X21061462Y-5082833D01*
X21101097Y-5141735D01*
X21102595Y-5212716D01*
X21065481Y-5273239D01*
X21056630Y-5280537D01*
X20949946Y-5360638D01*
X20936655Y-5370617D01*
X20933083Y-5374355D01*
X20780308Y-5534225D01*
X20776639Y-5538064D01*
X20773725Y-5542336D01*
X20773724Y-5542337D01*
X20758152Y-5565165D01*
X20646119Y-5729399D01*
X20548602Y-5939481D01*
X20486707Y-6162669D01*
X20462095Y-6392969D01*
X20462392Y-6398122D01*
X20462392Y-6398125D01*
X20474828Y-6613802D01*
X20475427Y-6624197D01*
X20476564Y-6629243D01*
X20476565Y-6629249D01*
X20508692Y-6771803D01*
X20526346Y-6850142D01*
X20528288Y-6854924D01*
X20528289Y-6854928D01*
X20611540Y-7059950D01*
X20613484Y-7064737D01*
X20734501Y-7262219D01*
X20886147Y-7437284D01*
X21050556Y-7573779D01*
X21061462Y-7582833D01*
X21101097Y-7641735D01*
X21102595Y-7712716D01*
X21065481Y-7773239D01*
X21056630Y-7780537D01*
X20973961Y-7842607D01*
X20936655Y-7870617D01*
X20776639Y-8038064D01*
X20773725Y-8042336D01*
X20773724Y-8042337D01*
X20758992Y-8063933D01*
X20646119Y-8229399D01*
X20548602Y-8439481D01*
X20486707Y-8662669D01*
X20462095Y-8892969D01*
X20462392Y-8898122D01*
X20462392Y-8898125D01*
X20468524Y-9004471D01*
X20475427Y-9124197D01*
X20476564Y-9129243D01*
X20476565Y-9129249D01*
X20508741Y-9272023D01*
X20526346Y-9350142D01*
X20528288Y-9354924D01*
X20528289Y-9354928D01*
X20611540Y-9559950D01*
X20613484Y-9564737D01*
X20734501Y-9762219D01*
X20886147Y-9937284D01*
X21064349Y-10085230D01*
X21264322Y-10202084D01*
X21480694Y-10284709D01*
X21485760Y-10285740D01*
X21485761Y-10285740D01*
X21538846Y-10296540D01*
X21707656Y-10330885D01*
X21838324Y-10335676D01*
X21933949Y-10339183D01*
X21933953Y-10339183D01*
X21939113Y-10339372D01*
X21944233Y-10338716D01*
X21944235Y-10338716D01*
X22017270Y-10329360D01*
X22168847Y-10309942D01*
X22173795Y-10308457D01*
X22173802Y-10308456D01*
X22385747Y-10244869D01*
X22390690Y-10243386D01*
X22431552Y-10223368D01*
X22594049Y-10143762D01*
X22594052Y-10143760D01*
X22598684Y-10141491D01*
X22787243Y-10006994D01*
X22951303Y-9843505D01*
X22967641Y-9820769D01*
X23002996Y-9771566D01*
X23086458Y-9655417D01*
X23108294Y-9611236D01*
X23186784Y-9452422D01*
X23186785Y-9452420D01*
X23189078Y-9447780D01*
X23256408Y-9226171D01*
X23286640Y-8996541D01*
X23287593Y-8957554D01*
X23288245Y-8930865D01*
X23288245Y-8930861D01*
X23288327Y-8927500D01*
X23279597Y-8821317D01*
X23269773Y-8701818D01*
X23269772Y-8701812D01*
X23269349Y-8696667D01*
X23212925Y-8472033D01*
X23207601Y-8459789D01*
X23122630Y-8264368D01*
X23122628Y-8264365D01*
X23120570Y-8259631D01*
X22994764Y-8065165D01*
X22986376Y-8055946D01*
X22904306Y-7965753D01*
X22838887Y-7893858D01*
X22834836Y-7890659D01*
X22834832Y-7890655D01*
X22688690Y-7775240D01*
X22647627Y-7717323D01*
X22644395Y-7646400D01*
X22680020Y-7584989D01*
X22693613Y-7573779D01*
X22787243Y-7506994D01*
X22951303Y-7343505D01*
X23086458Y-7155417D01*
X23108681Y-7110453D01*
X23186784Y-6952422D01*
X23186785Y-6952420D01*
X23189078Y-6947780D01*
X23256408Y-6726171D01*
X23286640Y-6496541D01*
X23286984Y-6482477D01*
X23288245Y-6430865D01*
X23288245Y-6430861D01*
X23288327Y-6427500D01*
X23271064Y-6217523D01*
X23269773Y-6201818D01*
X23269772Y-6201812D01*
X23269349Y-6196667D01*
X23239196Y-6076623D01*
X23214184Y-5977044D01*
X23214183Y-5977040D01*
X23212925Y-5972033D01*
X23209689Y-5964590D01*
X23122630Y-5764368D01*
X23122628Y-5764365D01*
X23120570Y-5759631D01*
X22994764Y-5565165D01*
X22838887Y-5393858D01*
X22834836Y-5390659D01*
X22834832Y-5390655D01*
X22688690Y-5275240D01*
X22647627Y-5217323D01*
X22644395Y-5146400D01*
X22680020Y-5084989D01*
X22693613Y-5073779D01*
X22787243Y-5006994D01*
X22799403Y-4994877D01*
X22937366Y-4857393D01*
X22951303Y-4843505D01*
X23086458Y-4655417D01*
X23096022Y-4636067D01*
X23186784Y-4452422D01*
X23186785Y-4452420D01*
X23189078Y-4447780D01*
X23256408Y-4226171D01*
X23286640Y-3996541D01*
X23288327Y-3927500D01*
X23276630Y-3785229D01*
X23269773Y-3701818D01*
X23269772Y-3701812D01*
X23269349Y-3696667D01*
X23212925Y-3472033D01*
X23206700Y-3457715D01*
X23143446Y-3312242D01*
X23134626Y-3241796D01*
X23165293Y-3177764D01*
X23225709Y-3140476D01*
X23258996Y-3136000D01*
X25331877Y-3136000D01*
X25399998Y-3156002D01*
X25438967Y-3196872D01*
X25439143Y-3196749D01*
X25570468Y-3384300D01*
X25732366Y-3546198D01*
X25736874Y-3549355D01*
X25736877Y-3549357D01*
X25749499Y-3558195D01*
X25919917Y-3677523D01*
X25924899Y-3679846D01*
X25924904Y-3679849D01*
X25959123Y-3695805D01*
X26012408Y-3742722D01*
X26031869Y-3810999D01*
X26011327Y-3878959D01*
X25959123Y-3924195D01*
X25924904Y-3940151D01*
X25924899Y-3940154D01*
X25919917Y-3942477D01*
X25837967Y-3999859D01*
X25736877Y-4070643D01*
X25736874Y-4070645D01*
X25732366Y-4073802D01*
X25570468Y-4235700D01*
X25567311Y-4240208D01*
X25567309Y-4240211D01*
X25516366Y-4312966D01*
X25439143Y-4423251D01*
X25436820Y-4428233D01*
X25436817Y-4428238D01*
X25344705Y-4625775D01*
X25342382Y-4630757D01*
X25340960Y-4636065D01*
X25340959Y-4636067D01*
X25285376Y-4843505D01*
X25283123Y-4851913D01*
X25263168Y-5080000D01*
X25283123Y-5308087D01*
X25284547Y-5313400D01*
X25284547Y-5313402D01*
X25332440Y-5492138D01*
X25342382Y-5529243D01*
X25344705Y-5534224D01*
X25344705Y-5534225D01*
X25436817Y-5731762D01*
X25436820Y-5731767D01*
X25439143Y-5736749D01*
X25570468Y-5924300D01*
X25732366Y-6086198D01*
X25736874Y-6089355D01*
X25736877Y-6089357D01*
X25815055Y-6144098D01*
X25919917Y-6217523D01*
X25924899Y-6219846D01*
X25924904Y-6219849D01*
X25959123Y-6235805D01*
X26012408Y-6282722D01*
X26031869Y-6350999D01*
X26011327Y-6418959D01*
X25959123Y-6464195D01*
X25924904Y-6480151D01*
X25924899Y-6480154D01*
X25919917Y-6482477D01*
X25838173Y-6539715D01*
X25736877Y-6610643D01*
X25736874Y-6610645D01*
X25732366Y-6613802D01*
X25570468Y-6775700D01*
X25567311Y-6780208D01*
X25567309Y-6780211D01*
X25554316Y-6798767D01*
X25439143Y-6963251D01*
X25436820Y-6968233D01*
X25436817Y-6968238D01*
X25349535Y-7155417D01*
X25342382Y-7170757D01*
X25340960Y-7176065D01*
X25340959Y-7176067D01*
X25296094Y-7343505D01*
X25283123Y-7391913D01*
X25263168Y-7620000D01*
X25283123Y-7848087D01*
X25284547Y-7853400D01*
X25284547Y-7853402D01*
X25335173Y-8042337D01*
X25342382Y-8069243D01*
X25344705Y-8074224D01*
X25344705Y-8074225D01*
X25436817Y-8271762D01*
X25436820Y-8271767D01*
X25439143Y-8276749D01*
X25504202Y-8369663D01*
X25556572Y-8444454D01*
X25570468Y-8464300D01*
X25732366Y-8626198D01*
X25736874Y-8629355D01*
X25736877Y-8629357D01*
X25784452Y-8662669D01*
X25919917Y-8757523D01*
X25924899Y-8759846D01*
X25924904Y-8759849D01*
X25959123Y-8775805D01*
X26012408Y-8822722D01*
X26031869Y-8890999D01*
X26011327Y-8958959D01*
X25959123Y-9004195D01*
X25924904Y-9020151D01*
X25924899Y-9020154D01*
X25919917Y-9022477D01*
X25862746Y-9062509D01*
X25736877Y-9150643D01*
X25736874Y-9150645D01*
X25732366Y-9153802D01*
X25570468Y-9315700D01*
X25439143Y-9503251D01*
X25436820Y-9508233D01*
X25436817Y-9508238D01*
X25347869Y-9698990D01*
X25342382Y-9710757D01*
X25340960Y-9716065D01*
X25340959Y-9716067D01*
X25286029Y-9921067D01*
X25283123Y-9931913D01*
X25263168Y-10160000D01*
X25283123Y-10388087D01*
X25284547Y-10393400D01*
X25284547Y-10393402D01*
X25321691Y-10532022D01*
X25342382Y-10609243D01*
X25344705Y-10614224D01*
X25344705Y-10614225D01*
X25436817Y-10811762D01*
X25436820Y-10811767D01*
X25439143Y-10816749D01*
X25570468Y-11004300D01*
X25732366Y-11166198D01*
X25736874Y-11169355D01*
X25736877Y-11169357D01*
X25815055Y-11224098D01*
X25919917Y-11297523D01*
X25924899Y-11299846D01*
X25924904Y-11299849D01*
X26121431Y-11391490D01*
X26127423Y-11394284D01*
X26132731Y-11395706D01*
X26132733Y-11395707D01*
X26343264Y-11452119D01*
X26343266Y-11452119D01*
X26348579Y-11453543D01*
X26576666Y-11473498D01*
X26804753Y-11453543D01*
X26810066Y-11452119D01*
X26810068Y-11452119D01*
X27020599Y-11395707D01*
X27020601Y-11395706D01*
X27025909Y-11394284D01*
X27031901Y-11391490D01*
X27228428Y-11299849D01*
X27228433Y-11299846D01*
X27233415Y-11297523D01*
X27338277Y-11224098D01*
X27416455Y-11169357D01*
X27416458Y-11169355D01*
X27420966Y-11166198D01*
X27582864Y-11004300D01*
X27714189Y-10816749D01*
X27716512Y-10811767D01*
X27716515Y-10811762D01*
X27808627Y-10614225D01*
X27808627Y-10614224D01*
X27810950Y-10609243D01*
X27831642Y-10532022D01*
X27859911Y-10426522D01*
X32913939Y-10426522D01*
X32961430Y-10603761D01*
X32965176Y-10614053D01*
X33057252Y-10811511D01*
X33062735Y-10821007D01*
X33187694Y-10999467D01*
X33194750Y-11007875D01*
X33348791Y-11161916D01*
X33357199Y-11168972D01*
X33535659Y-11293931D01*
X33545155Y-11299414D01*
X33742613Y-11391490D01*
X33752905Y-11395236D01*
X33925169Y-11441394D01*
X33939265Y-11441058D01*
X33942666Y-11433116D01*
X33942666Y-11427967D01*
X34450666Y-11427967D01*
X34454639Y-11441498D01*
X34463188Y-11442727D01*
X34640427Y-11395236D01*
X34650719Y-11391490D01*
X34848177Y-11299414D01*
X34857673Y-11293931D01*
X34926037Y-11246062D01*
X43093493Y-11246062D01*
X43102789Y-11258077D01*
X43153994Y-11293931D01*
X43163489Y-11299414D01*
X43360947Y-11391490D01*
X43371239Y-11395236D01*
X43581688Y-11451625D01*
X43592481Y-11453528D01*
X43809525Y-11472517D01*
X43820475Y-11472517D01*
X44037519Y-11453528D01*
X44048312Y-11451625D01*
X44258761Y-11395236D01*
X44269053Y-11391490D01*
X44466511Y-11299414D01*
X44476006Y-11293931D01*
X44528048Y-11257491D01*
X44536424Y-11247012D01*
X44529356Y-11233566D01*
X43827812Y-10532022D01*
X43813868Y-10524408D01*
X43812035Y-10524539D01*
X43805420Y-10528790D01*
X43099923Y-11234287D01*
X43093493Y-11246062D01*
X34926037Y-11246062D01*
X35036133Y-11168972D01*
X35044541Y-11161916D01*
X35198582Y-11007875D01*
X35205638Y-10999467D01*
X35330597Y-10821007D01*
X35336080Y-10811511D01*
X35428156Y-10614053D01*
X35431902Y-10603761D01*
X35478060Y-10431497D01*
X35477724Y-10417401D01*
X35469782Y-10414000D01*
X34468781Y-10414000D01*
X34453542Y-10418475D01*
X34452337Y-10419865D01*
X34450666Y-10427548D01*
X34450666Y-11427967D01*
X33942666Y-11427967D01*
X33942666Y-10432115D01*
X33938191Y-10416876D01*
X33936801Y-10415671D01*
X33929118Y-10414000D01*
X32928699Y-10414000D01*
X32915168Y-10417973D01*
X32913939Y-10426522D01*
X27859911Y-10426522D01*
X27868785Y-10393402D01*
X27868785Y-10393400D01*
X27870209Y-10388087D01*
X27889685Y-10165475D01*
X42502483Y-10165475D01*
X42521472Y-10382519D01*
X42523375Y-10393312D01*
X42579764Y-10603761D01*
X42583510Y-10614053D01*
X42675586Y-10811511D01*
X42681069Y-10821006D01*
X42717509Y-10873048D01*
X42727988Y-10881424D01*
X42741434Y-10874356D01*
X43442978Y-10172812D01*
X43449356Y-10161132D01*
X44179408Y-10161132D01*
X44179539Y-10162965D01*
X44183790Y-10169580D01*
X44889287Y-10875077D01*
X44901062Y-10881507D01*
X44913077Y-10872211D01*
X44948931Y-10821006D01*
X44954414Y-10811511D01*
X45046490Y-10614053D01*
X45050236Y-10603761D01*
X45106625Y-10393312D01*
X45108528Y-10382519D01*
X45127517Y-10165475D01*
X45127517Y-10154525D01*
X45117381Y-10038669D01*
X52109001Y-10038669D01*
X52109371Y-10045490D01*
X52114895Y-10096352D01*
X52118521Y-10111604D01*
X52163676Y-10232054D01*
X52172214Y-10247649D01*
X52248715Y-10349724D01*
X52261276Y-10362285D01*
X52363351Y-10438786D01*
X52378946Y-10447324D01*
X52499394Y-10492478D01*
X52514649Y-10496105D01*
X52565514Y-10501631D01*
X52572328Y-10502000D01*
X53194885Y-10502000D01*
X53210124Y-10497525D01*
X53211329Y-10496135D01*
X53213000Y-10488452D01*
X53213000Y-10483884D01*
X53721000Y-10483884D01*
X53725475Y-10499123D01*
X53726865Y-10500328D01*
X53734548Y-10501999D01*
X54361669Y-10501999D01*
X54368490Y-10501629D01*
X54419352Y-10496105D01*
X54434604Y-10492479D01*
X54555054Y-10447324D01*
X54570649Y-10438786D01*
X54672724Y-10362285D01*
X54685285Y-10349724D01*
X54761786Y-10247649D01*
X54770324Y-10232054D01*
X54815478Y-10111606D01*
X54819105Y-10096351D01*
X54824631Y-10045486D01*
X54825000Y-10038672D01*
X54825000Y-9416115D01*
X54820525Y-9400876D01*
X54819135Y-9399671D01*
X54811452Y-9398000D01*
X53739115Y-9398000D01*
X53723876Y-9402475D01*
X53722671Y-9403865D01*
X53721000Y-9411548D01*
X53721000Y-10483884D01*
X53213000Y-10483884D01*
X53213000Y-9416115D01*
X53208525Y-9400876D01*
X53207135Y-9399671D01*
X53199452Y-9398000D01*
X52127116Y-9398000D01*
X52111877Y-9402475D01*
X52110672Y-9403865D01*
X52109001Y-9411548D01*
X52109001Y-10038669D01*
X45117381Y-10038669D01*
X45108528Y-9937481D01*
X45106625Y-9926688D01*
X45050236Y-9716239D01*
X45046490Y-9705947D01*
X44954414Y-9508489D01*
X44948931Y-9498994D01*
X44912491Y-9446952D01*
X44902012Y-9438576D01*
X44888566Y-9445644D01*
X44187022Y-10147188D01*
X44179408Y-10161132D01*
X43449356Y-10161132D01*
X43450592Y-10158868D01*
X43450461Y-10157035D01*
X43446210Y-10150420D01*
X42740713Y-9444923D01*
X42728938Y-9438493D01*
X42716923Y-9447789D01*
X42681069Y-9498994D01*
X42675586Y-9508489D01*
X42583510Y-9705947D01*
X42579764Y-9716239D01*
X42523375Y-9926688D01*
X42521472Y-9937481D01*
X42502483Y-10154525D01*
X42502483Y-10165475D01*
X27889685Y-10165475D01*
X27890164Y-10160000D01*
X27870209Y-9931913D01*
X27867303Y-9921067D01*
X27812373Y-9716067D01*
X27812372Y-9716065D01*
X27810950Y-9710757D01*
X27805463Y-9698990D01*
X27716515Y-9508238D01*
X27716512Y-9508233D01*
X27714189Y-9503251D01*
X27582864Y-9315700D01*
X27420966Y-9153802D01*
X27416458Y-9150645D01*
X27416455Y-9150643D01*
X27290586Y-9062509D01*
X27233415Y-9022477D01*
X27228433Y-9020154D01*
X27228428Y-9020151D01*
X27194209Y-9004195D01*
X27140924Y-8957278D01*
X27121463Y-8889001D01*
X27142005Y-8821041D01*
X27194209Y-8775805D01*
X27228428Y-8759849D01*
X27228433Y-8759846D01*
X27233415Y-8757523D01*
X27368880Y-8662669D01*
X27416455Y-8629357D01*
X27416458Y-8629355D01*
X27420966Y-8626198D01*
X27582864Y-8464300D01*
X27596761Y-8444454D01*
X27649130Y-8369663D01*
X27714189Y-8276749D01*
X27716512Y-8271767D01*
X27716515Y-8271762D01*
X27808627Y-8074225D01*
X27808627Y-8074224D01*
X27810950Y-8069243D01*
X27818160Y-8042337D01*
X27868785Y-7853402D01*
X27868785Y-7853400D01*
X27870209Y-7848087D01*
X27890164Y-7620000D01*
X27870209Y-7391913D01*
X27857238Y-7343505D01*
X27812373Y-7176067D01*
X27812372Y-7176065D01*
X27810950Y-7170757D01*
X27803797Y-7155417D01*
X27716515Y-6968238D01*
X27716512Y-6968233D01*
X27714189Y-6963251D01*
X27599016Y-6798767D01*
X27586023Y-6780211D01*
X27586021Y-6780208D01*
X27582864Y-6775700D01*
X27420966Y-6613802D01*
X27416458Y-6610645D01*
X27416455Y-6610643D01*
X27315159Y-6539715D01*
X27233415Y-6482477D01*
X27228433Y-6480154D01*
X27228428Y-6480151D01*
X27194209Y-6464195D01*
X27140924Y-6417278D01*
X27121463Y-6349001D01*
X27142005Y-6281041D01*
X27194209Y-6235805D01*
X27228428Y-6219849D01*
X27228433Y-6219846D01*
X27233415Y-6217523D01*
X27338277Y-6144098D01*
X27416455Y-6089357D01*
X27416458Y-6089355D01*
X27420966Y-6086198D01*
X27582864Y-5924300D01*
X27714189Y-5736749D01*
X27716512Y-5731767D01*
X27716515Y-5731762D01*
X27808627Y-5534225D01*
X27808627Y-5534224D01*
X27810950Y-5529243D01*
X27820893Y-5492138D01*
X27868785Y-5313402D01*
X27868785Y-5313400D01*
X27870209Y-5308087D01*
X27890164Y-5080000D01*
X27870209Y-4851913D01*
X27867956Y-4843505D01*
X27812373Y-4636067D01*
X27812372Y-4636065D01*
X27810950Y-4630757D01*
X27808627Y-4625775D01*
X27716515Y-4428238D01*
X27716512Y-4428233D01*
X27714189Y-4423251D01*
X27636966Y-4312966D01*
X27586023Y-4240211D01*
X27586021Y-4240208D01*
X27582864Y-4235700D01*
X27420966Y-4073802D01*
X27416458Y-4070645D01*
X27416455Y-4070643D01*
X27315365Y-3999859D01*
X27233415Y-3942477D01*
X27228433Y-3940154D01*
X27228428Y-3940151D01*
X27194209Y-3924195D01*
X27140924Y-3877278D01*
X27121463Y-3809001D01*
X27142005Y-3741041D01*
X27194209Y-3695805D01*
X27228428Y-3679849D01*
X27228433Y-3679846D01*
X27233415Y-3677523D01*
X27403833Y-3558195D01*
X27416455Y-3549357D01*
X27416458Y-3549355D01*
X27420966Y-3546198D01*
X27582864Y-3384300D01*
X27714189Y-3196749D01*
X27716512Y-3191767D01*
X27716515Y-3191762D01*
X27808627Y-2994225D01*
X27808627Y-2994224D01*
X27810950Y-2989243D01*
X27870209Y-2768087D01*
X27875358Y-2709229D01*
X27901221Y-2643112D01*
X27911784Y-2631116D01*
X28657495Y-1885405D01*
X28719807Y-1851379D01*
X28746590Y-1848500D01*
X32762166Y-1848500D01*
X32830287Y-1868502D01*
X32876780Y-1922158D01*
X32888166Y-1974500D01*
X32888166Y-3388134D01*
X32894921Y-3450316D01*
X32946051Y-3586705D01*
X33033405Y-3703261D01*
X33149961Y-3790615D01*
X33286350Y-3841745D01*
X33297140Y-3842917D01*
X33299272Y-3843803D01*
X33301888Y-3844425D01*
X33301787Y-3844848D01*
X33362701Y-3870155D01*
X33403129Y-3928517D01*
X33405588Y-3999471D01*
X33369295Y-4060490D01*
X33360635Y-4067489D01*
X33356873Y-4070646D01*
X33352366Y-4073802D01*
X33190468Y-4235700D01*
X33187311Y-4240208D01*
X33187309Y-4240211D01*
X33136366Y-4312966D01*
X33059143Y-4423251D01*
X33056820Y-4428233D01*
X33056817Y-4428238D01*
X32964705Y-4625775D01*
X32962382Y-4630757D01*
X32960960Y-4636065D01*
X32960959Y-4636067D01*
X32905376Y-4843505D01*
X32903123Y-4851913D01*
X32883168Y-5080000D01*
X32903123Y-5308087D01*
X32904547Y-5313400D01*
X32904547Y-5313402D01*
X32952440Y-5492138D01*
X32962382Y-5529243D01*
X32964705Y-5534224D01*
X32964705Y-5534225D01*
X33056817Y-5731762D01*
X33056820Y-5731767D01*
X33059143Y-5736749D01*
X33190468Y-5924300D01*
X33352366Y-6086198D01*
X33356874Y-6089355D01*
X33356877Y-6089357D01*
X33435055Y-6144098D01*
X33539917Y-6217523D01*
X33544899Y-6219846D01*
X33544904Y-6219849D01*
X33579123Y-6235805D01*
X33632408Y-6282722D01*
X33651869Y-6350999D01*
X33631327Y-6418959D01*
X33579123Y-6464195D01*
X33544904Y-6480151D01*
X33544899Y-6480154D01*
X33539917Y-6482477D01*
X33458173Y-6539715D01*
X33356877Y-6610643D01*
X33356874Y-6610645D01*
X33352366Y-6613802D01*
X33190468Y-6775700D01*
X33187311Y-6780208D01*
X33187309Y-6780211D01*
X33174316Y-6798767D01*
X33059143Y-6963251D01*
X33056820Y-6968233D01*
X33056817Y-6968238D01*
X32969535Y-7155417D01*
X32962382Y-7170757D01*
X32960960Y-7176065D01*
X32960959Y-7176067D01*
X32916094Y-7343505D01*
X32903123Y-7391913D01*
X32883168Y-7620000D01*
X32903123Y-7848087D01*
X32904547Y-7853400D01*
X32904547Y-7853402D01*
X32955173Y-8042337D01*
X32962382Y-8069243D01*
X32964705Y-8074224D01*
X32964705Y-8074225D01*
X33056817Y-8271762D01*
X33056820Y-8271767D01*
X33059143Y-8276749D01*
X33124202Y-8369663D01*
X33176572Y-8444454D01*
X33190468Y-8464300D01*
X33352366Y-8626198D01*
X33356874Y-8629355D01*
X33356877Y-8629357D01*
X33404452Y-8662669D01*
X33539917Y-8757523D01*
X33544899Y-8759846D01*
X33544904Y-8759849D01*
X33579715Y-8776081D01*
X33633000Y-8822998D01*
X33652461Y-8891275D01*
X33631919Y-8959235D01*
X33579715Y-9004471D01*
X33545155Y-9020586D01*
X33535659Y-9026069D01*
X33357199Y-9151028D01*
X33348791Y-9158084D01*
X33194750Y-9312125D01*
X33187694Y-9320533D01*
X33062735Y-9498993D01*
X33057252Y-9508489D01*
X32965176Y-9705947D01*
X32961430Y-9716239D01*
X32915272Y-9888503D01*
X32915608Y-9902599D01*
X32923550Y-9906000D01*
X35464633Y-9906000D01*
X35478164Y-9902027D01*
X35479393Y-9893478D01*
X35431902Y-9716239D01*
X35428156Y-9705947D01*
X35336080Y-9508489D01*
X35330597Y-9498993D01*
X35205638Y-9320533D01*
X35198582Y-9312125D01*
X35044541Y-9158084D01*
X35036133Y-9151028D01*
X34924680Y-9072988D01*
X43093576Y-9072988D01*
X43100644Y-9086434D01*
X43802188Y-9787978D01*
X43816132Y-9795592D01*
X43817965Y-9795461D01*
X43824580Y-9791210D01*
X44530077Y-9085713D01*
X44536507Y-9073938D01*
X44527211Y-9061923D01*
X44476006Y-9026069D01*
X44466511Y-9020586D01*
X44269053Y-8928510D01*
X44258761Y-8924764D01*
X44048312Y-8868375D01*
X44037519Y-8866472D01*
X43820475Y-8847483D01*
X43809525Y-8847483D01*
X43592481Y-8866472D01*
X43581688Y-8868375D01*
X43371239Y-8924764D01*
X43360947Y-8928510D01*
X43163489Y-9020586D01*
X43153994Y-9026069D01*
X43101952Y-9062509D01*
X43093576Y-9072988D01*
X34924680Y-9072988D01*
X34857673Y-9026069D01*
X34848177Y-9020586D01*
X34813617Y-9004471D01*
X34760332Y-8957554D01*
X34740871Y-8889277D01*
X34761413Y-8821317D01*
X34813617Y-8776081D01*
X34848428Y-8759849D01*
X34848433Y-8759846D01*
X34853415Y-8757523D01*
X34988880Y-8662669D01*
X35036455Y-8629357D01*
X35036458Y-8629355D01*
X35040966Y-8626198D01*
X35202864Y-8464300D01*
X35216761Y-8444454D01*
X35269130Y-8369663D01*
X35334189Y-8276749D01*
X35336512Y-8271767D01*
X35336515Y-8271762D01*
X35428627Y-8074225D01*
X35428627Y-8074224D01*
X35430950Y-8069243D01*
X35438160Y-8042337D01*
X35488785Y-7853402D01*
X35488785Y-7853400D01*
X35490209Y-7848087D01*
X35510164Y-7620000D01*
X35490209Y-7391913D01*
X35477238Y-7343505D01*
X35432373Y-7176067D01*
X35432372Y-7176065D01*
X35430950Y-7170757D01*
X35423797Y-7155417D01*
X35336515Y-6968238D01*
X35336512Y-6968233D01*
X35334189Y-6963251D01*
X35219016Y-6798767D01*
X35206023Y-6780211D01*
X35206021Y-6780208D01*
X35202864Y-6775700D01*
X35040966Y-6613802D01*
X35036458Y-6610645D01*
X35036455Y-6610643D01*
X34935159Y-6539715D01*
X34853415Y-6482477D01*
X34848433Y-6480154D01*
X34848428Y-6480151D01*
X34814209Y-6464195D01*
X34760924Y-6417278D01*
X34741463Y-6349001D01*
X34762005Y-6281041D01*
X34814209Y-6235805D01*
X34848428Y-6219849D01*
X34848433Y-6219846D01*
X34853415Y-6217523D01*
X35005135Y-6111287D01*
X35077406Y-6088500D01*
X42333157Y-6088500D01*
X42346764Y-6089237D01*
X42378262Y-6092659D01*
X42378267Y-6092659D01*
X42384388Y-6093324D01*
X42410638Y-6091027D01*
X42434388Y-6088950D01*
X42439214Y-6088621D01*
X42441686Y-6088500D01*
X42444769Y-6088500D01*
X42456738Y-6087326D01*
X42487506Y-6084310D01*
X42488819Y-6084188D01*
X42533084Y-6080315D01*
X42581413Y-6076087D01*
X42586532Y-6074600D01*
X42591833Y-6074080D01*
X42680834Y-6047209D01*
X42681967Y-6046874D01*
X42765414Y-6022630D01*
X42765418Y-6022628D01*
X42771336Y-6020909D01*
X42776068Y-6018456D01*
X42781169Y-6016916D01*
X42786612Y-6014022D01*
X42863260Y-5973269D01*
X42864426Y-5972657D01*
X42941453Y-5932729D01*
X42946926Y-5929892D01*
X42951089Y-5926569D01*
X42955796Y-5924066D01*
X43027918Y-5865245D01*
X43028774Y-5864554D01*
X43067973Y-5833262D01*
X43070477Y-5830758D01*
X43071195Y-5830116D01*
X43075528Y-5826415D01*
X43109062Y-5799065D01*
X43138291Y-5763733D01*
X43146272Y-5754963D01*
X43518841Y-5382394D01*
X43895829Y-5005405D01*
X43958142Y-4971380D01*
X43984925Y-4968500D01*
X44663134Y-4968500D01*
X44725316Y-4961745D01*
X44861705Y-4910615D01*
X44978261Y-4823261D01*
X45065615Y-4706705D01*
X45116745Y-4570316D01*
X45123500Y-4508134D01*
X45123500Y-2811866D01*
X45116745Y-2749684D01*
X45065615Y-2613295D01*
X44978261Y-2496739D01*
X44861705Y-2409385D01*
X44725316Y-2358255D01*
X44663134Y-2351500D01*
X42966866Y-2351500D01*
X42904684Y-2358255D01*
X42768295Y-2409385D01*
X42651739Y-2496739D01*
X42564385Y-2613295D01*
X42513255Y-2749684D01*
X42506500Y-2811866D01*
X42506500Y-3490074D01*
X42486498Y-3558195D01*
X42469596Y-3579169D01*
X42014171Y-4034595D01*
X41951858Y-4068620D01*
X41925075Y-4071500D01*
X35189162Y-4071500D01*
X35121041Y-4051498D01*
X35074548Y-3997842D01*
X35064444Y-3927568D01*
X35093938Y-3862988D01*
X35144933Y-3827518D01*
X35234961Y-3793768D01*
X35234962Y-3793767D01*
X35243371Y-3790615D01*
X35359927Y-3703261D01*
X35447281Y-3586705D01*
X35498411Y-3450316D01*
X35505166Y-3388134D01*
X35505166Y-1974500D01*
X35525168Y-1906379D01*
X35578824Y-1859886D01*
X35631166Y-1848500D01*
X47233075Y-1848500D01*
X47301196Y-1868502D01*
X47322170Y-1885405D01*
X52076239Y-6639473D01*
X52110265Y-6701785D01*
X52112935Y-6721314D01*
X52116071Y-6775700D01*
X52117110Y-6793715D01*
X52118247Y-6798761D01*
X52118248Y-6798767D01*
X52130905Y-6854928D01*
X52166222Y-7011639D01*
X52250266Y-7218616D01*
X52252965Y-7223020D01*
X52356009Y-7391173D01*
X52366987Y-7409088D01*
X52513250Y-7577938D01*
X52517225Y-7581238D01*
X52517231Y-7581244D01*
X52522425Y-7585556D01*
X52562059Y-7644460D01*
X52563555Y-7715441D01*
X52526439Y-7775962D01*
X52486168Y-7800480D01*
X52378946Y-7840676D01*
X52363351Y-7849214D01*
X52261276Y-7925715D01*
X52248715Y-7938276D01*
X52172214Y-8040351D01*
X52163676Y-8055946D01*
X52118522Y-8176394D01*
X52114895Y-8191649D01*
X52109369Y-8242514D01*
X52109000Y-8249328D01*
X52109000Y-8871885D01*
X52113475Y-8887124D01*
X52114865Y-8888329D01*
X52122548Y-8890000D01*
X54806884Y-8890000D01*
X54822123Y-8885525D01*
X54823328Y-8884135D01*
X54824999Y-8876452D01*
X54824999Y-8249331D01*
X54824629Y-8242510D01*
X54819105Y-8191648D01*
X54815479Y-8176396D01*
X54770324Y-8055946D01*
X54761786Y-8040351D01*
X54685285Y-7938276D01*
X54672724Y-7925715D01*
X54570649Y-7849214D01*
X54555054Y-7840676D01*
X54444813Y-7799348D01*
X54388049Y-7756706D01*
X54363349Y-7690145D01*
X54378557Y-7620796D01*
X54400104Y-7592115D01*
X54501430Y-7491144D01*
X54501440Y-7491132D01*
X54505096Y-7487489D01*
X54529413Y-7453649D01*
X54632435Y-7310277D01*
X54635453Y-7306077D01*
X54662432Y-7251490D01*
X54732136Y-7110453D01*
X54732137Y-7110451D01*
X54734430Y-7105811D01*
X54776228Y-6968238D01*
X54797865Y-6897023D01*
X54797865Y-6897021D01*
X54799370Y-6892069D01*
X54828529Y-6670590D01*
X54829663Y-6624197D01*
X54830074Y-6607365D01*
X54830074Y-6607361D01*
X54830156Y-6604000D01*
X54811852Y-6381361D01*
X54757431Y-6164702D01*
X54668354Y-5959840D01*
X54584432Y-5830116D01*
X54549822Y-5776617D01*
X54549820Y-5776614D01*
X54547014Y-5772277D01*
X54396670Y-5607051D01*
X54392619Y-5603852D01*
X54392615Y-5603848D01*
X54225414Y-5471800D01*
X54225410Y-5471798D01*
X54221359Y-5468598D01*
X54197321Y-5455328D01*
X54108310Y-5406192D01*
X54025789Y-5360638D01*
X54020920Y-5358914D01*
X54020916Y-5358912D01*
X53820087Y-5287795D01*
X53820083Y-5287794D01*
X53815212Y-5286069D01*
X53810119Y-5285162D01*
X53810116Y-5285161D01*
X53738361Y-5272380D01*
X53595284Y-5246894D01*
X53586685Y-5246789D01*
X53585353Y-5246380D01*
X53584961Y-5246343D01*
X53584969Y-5246262D01*
X53518813Y-5225956D01*
X53499128Y-5209893D01*
X51265204Y-2975969D01*
X49012829Y-723595D01*
X48978803Y-661283D01*
X48983868Y-590468D01*
X49026415Y-533632D01*
X49092935Y-508821D01*
X49101924Y-508500D01*
X55372500Y-508500D01*
X55440621Y-528502D01*
X55487114Y-582158D01*
X55498500Y-634500D01*
X55498500Y-12700500D01*
X55478498Y-12768621D01*
X55424842Y-12815114D01*
X55372500Y-12826500D01*
X634500Y-12826500D01*
X566379Y-12806498D01*
X519886Y-12752842D01*
X508500Y-12700500D01*
X508500Y-6077885D01*
X1817000Y-6077885D01*
X1821475Y-6093124D01*
X1822865Y-6094329D01*
X1830548Y-6096000D01*
X2902885Y-6096000D01*
X2918124Y-6091525D01*
X2919329Y-6090135D01*
X2921000Y-6082452D01*
X2921000Y-6077885D01*
X3429000Y-6077885D01*
X3433475Y-6093124D01*
X3434865Y-6094329D01*
X3442548Y-6096000D01*
X4514884Y-6096000D01*
X4530123Y-6091525D01*
X4531328Y-6090135D01*
X4532999Y-6082452D01*
X4532999Y-6077885D01*
X6897000Y-6077885D01*
X6901475Y-6093124D01*
X6902865Y-6094329D01*
X6910548Y-6096000D01*
X7982885Y-6096000D01*
X7998124Y-6091525D01*
X7999329Y-6090135D01*
X8001000Y-6082452D01*
X8001000Y-5010116D01*
X7996525Y-4994877D01*
X7995135Y-4993672D01*
X7987452Y-4992001D01*
X7360331Y-4992001D01*
X7353510Y-4992371D01*
X7302648Y-4997895D01*
X7287396Y-5001521D01*
X7166946Y-5046676D01*
X7151351Y-5055214D01*
X7049276Y-5131715D01*
X7036715Y-5144276D01*
X6960214Y-5246351D01*
X6951676Y-5261946D01*
X6906522Y-5382394D01*
X6902895Y-5397649D01*
X6897369Y-5448514D01*
X6897000Y-5455328D01*
X6897000Y-6077885D01*
X4532999Y-6077885D01*
X4532999Y-5455331D01*
X4532629Y-5448510D01*
X4527105Y-5397648D01*
X4523479Y-5382396D01*
X4478324Y-5261946D01*
X4469786Y-5246351D01*
X4393285Y-5144276D01*
X4380724Y-5131715D01*
X4278649Y-5055214D01*
X4263054Y-5046676D01*
X4142606Y-5001522D01*
X4127351Y-4997895D01*
X4076486Y-4992369D01*
X4069672Y-4992000D01*
X3447115Y-4992000D01*
X3431876Y-4996475D01*
X3430671Y-4997865D01*
X3429000Y-5005548D01*
X3429000Y-6077885D01*
X2921000Y-6077885D01*
X2921000Y-5010116D01*
X2916525Y-4994877D01*
X2915135Y-4993672D01*
X2907452Y-4992001D01*
X2280331Y-4992001D01*
X2273510Y-4992371D01*
X2222648Y-4997895D01*
X2207396Y-5001521D01*
X2086946Y-5046676D01*
X2071351Y-5055214D01*
X1969276Y-5131715D01*
X1956715Y-5144276D01*
X1880214Y-5246351D01*
X1871676Y-5261946D01*
X1826522Y-5382394D01*
X1822895Y-5397649D01*
X1817369Y-5448514D01*
X1817000Y-5455328D01*
X1817000Y-6077885D01*
X508500Y-6077885D01*
X508500Y-634500D01*
X528502Y-566379D01*
X582158Y-519886D01*
X634500Y-508500D01*
X26877741Y-508500D01*
X26945862Y-528502D01*
G37*
%TD.AperFunction*%
%TD*%
M02*
