%TF.GenerationSoftware,KiCad,Pcbnew,5.99.0+really5.1.12+dfsg1-1*%
%TF.CreationDate,2022-01-03T14:28:05-08:00*%
%TF.ProjectId,voltage_cuttoff_1s_minimal_parts,766f6c74-6167-4655-9f63-7574746f6666,rev?*%
%TF.SameCoordinates,Original*%
%TF.FileFunction,Copper,L1,Top*%
%TF.FilePolarity,Positive*%
%FSLAX46Y46*%
G04 Gerber Fmt 4.6, Leading zero omitted, Abs format (unit mm)*
G04 Created by KiCad (PCBNEW 5.99.0+really5.1.12+dfsg1-1) date 2022-01-03 14:28:05*
%MOMM*%
%LPD*%
G01*
G04 APERTURE LIST*
%TA.AperFunction,ComponentPad*%
%ADD10R,1.600000X1.600000*%
%TD*%
%TA.AperFunction,ComponentPad*%
%ADD11C,1.600000*%
%TD*%
%TA.AperFunction,ComponentPad*%
%ADD12C,2.500000*%
%TD*%
%TA.AperFunction,SMDPad,CuDef*%
%ADD13R,4.000000X4.000000*%
%TD*%
%TA.AperFunction,ComponentPad*%
%ADD14R,1.700000X1.700000*%
%TD*%
%TA.AperFunction,ComponentPad*%
%ADD15O,1.700000X1.700000*%
%TD*%
%TA.AperFunction,ComponentPad*%
%ADD16R,1.905000X2.000000*%
%TD*%
%TA.AperFunction,ComponentPad*%
%ADD17O,1.905000X2.000000*%
%TD*%
%TA.AperFunction,ComponentPad*%
%ADD18C,1.222000*%
%TD*%
%TA.AperFunction,ComponentPad*%
%ADD19R,1.222000X1.222000*%
%TD*%
%TA.AperFunction,ComponentPad*%
%ADD20O,1.600000X1.600000*%
%TD*%
%TA.AperFunction,Conductor*%
%ADD21C,0.500000*%
%TD*%
%TA.AperFunction,Conductor*%
%ADD22C,2.000000*%
%TD*%
%TA.AperFunction,Conductor*%
%ADD23C,1.000000*%
%TD*%
%TA.AperFunction,Conductor*%
%ADD24C,2.500000*%
%TD*%
%TA.AperFunction,Conductor*%
%ADD25C,0.100000*%
%TD*%
G04 APERTURE END LIST*
%TO.P,R5,2*%
%TO.N,Net-(R4-Pad1)*%
%TA.AperFunction,SMDPad,CuDef*%
G36*
G01*
X151949999Y-103000000D02*
X152850001Y-103000000D01*
G75*
G02*
X153100000Y-103249999I0J-249999D01*
G01*
X153100000Y-103950001D01*
G75*
G02*
X152850001Y-104200000I-249999J0D01*
G01*
X151949999Y-104200000D01*
G75*
G02*
X151700000Y-103950001I0J249999D01*
G01*
X151700000Y-103249999D01*
G75*
G02*
X151949999Y-103000000I249999J0D01*
G01*
G37*
%TD.AperFunction*%
%TO.P,R5,1*%
%TO.N,Net-(Q1-Pad1)*%
%TA.AperFunction,SMDPad,CuDef*%
G36*
G01*
X151949999Y-101000000D02*
X152850001Y-101000000D01*
G75*
G02*
X153100000Y-101249999I0J-249999D01*
G01*
X153100000Y-101950001D01*
G75*
G02*
X152850001Y-102200000I-249999J0D01*
G01*
X151949999Y-102200000D01*
G75*
G02*
X151700000Y-101950001I0J249999D01*
G01*
X151700000Y-101249999D01*
G75*
G02*
X151949999Y-101000000I249999J0D01*
G01*
G37*
%TD.AperFunction*%
%TD*%
%TO.P,C1,2*%
%TO.N,GND*%
%TA.AperFunction,SMDPad,CuDef*%
G36*
G01*
X144587500Y-110015000D02*
X144587500Y-110965000D01*
G75*
G02*
X144337500Y-111215000I-250000J0D01*
G01*
X143662500Y-111215000D01*
G75*
G02*
X143412500Y-110965000I0J250000D01*
G01*
X143412500Y-110015000D01*
G75*
G02*
X143662500Y-109765000I250000J0D01*
G01*
X144337500Y-109765000D01*
G75*
G02*
X144587500Y-110015000I0J-250000D01*
G01*
G37*
%TD.AperFunction*%
%TO.P,C1,1*%
%TO.N,Net-(C1-Pad1)*%
%TA.AperFunction,SMDPad,CuDef*%
G36*
G01*
X146662500Y-110015000D02*
X146662500Y-110965000D01*
G75*
G02*
X146412500Y-111215000I-250000J0D01*
G01*
X145737500Y-111215000D01*
G75*
G02*
X145487500Y-110965000I0J250000D01*
G01*
X145487500Y-110015000D01*
G75*
G02*
X145737500Y-109765000I250000J0D01*
G01*
X146412500Y-109765000D01*
G75*
G02*
X146662500Y-110015000I0J-250000D01*
G01*
G37*
%TD.AperFunction*%
%TD*%
%TO.P,C2,1*%
%TO.N,Net-(C2-Pad1)*%
%TA.AperFunction,SMDPad,CuDef*%
G36*
G01*
X137193000Y-105287500D02*
X138143000Y-105287500D01*
G75*
G02*
X138393000Y-105537500I0J-250000D01*
G01*
X138393000Y-106212500D01*
G75*
G02*
X138143000Y-106462500I-250000J0D01*
G01*
X137193000Y-106462500D01*
G75*
G02*
X136943000Y-106212500I0J250000D01*
G01*
X136943000Y-105537500D01*
G75*
G02*
X137193000Y-105287500I250000J0D01*
G01*
G37*
%TD.AperFunction*%
%TO.P,C2,2*%
%TO.N,GND*%
%TA.AperFunction,SMDPad,CuDef*%
G36*
G01*
X137193000Y-107362500D02*
X138143000Y-107362500D01*
G75*
G02*
X138393000Y-107612500I0J-250000D01*
G01*
X138393000Y-108287500D01*
G75*
G02*
X138143000Y-108537500I-250000J0D01*
G01*
X137193000Y-108537500D01*
G75*
G02*
X136943000Y-108287500I0J250000D01*
G01*
X136943000Y-107612500D01*
G75*
G02*
X137193000Y-107362500I250000J0D01*
G01*
G37*
%TD.AperFunction*%
%TD*%
D10*
%TO.P,C3,1*%
%TO.N,Net-(C1-Pad1)*%
X155448000Y-114046000D03*
D11*
%TO.P,C3,2*%
%TO.N,GND*%
X155448000Y-111546000D03*
%TD*%
D12*
%TO.P,F1,1*%
%TO.N,Net-(F1-Pad1)*%
X156098000Y-100330000D03*
X161798000Y-100330000D03*
%TO.P,F1,2*%
%TO.N,Net-(F1-Pad2)*%
X170398000Y-100330000D03*
X176098000Y-100330000D03*
%TD*%
D13*
%TO.P,J1,1*%
%TO.N,Net-(C1-Pad1)*%
X130810000Y-114990000D03*
%TO.P,J1,2*%
%TO.N,GND*%
X130810000Y-110490000D03*
%TD*%
D14*
%TO.P,J2,1*%
%TO.N,GND*%
X144018000Y-98552000D03*
D15*
%TO.P,J2,2*%
%TO.N,Net-(J2-Pad2)*%
X146558000Y-98552000D03*
%TD*%
D13*
%TO.P,J3,2*%
%TO.N,Net-(C1-Pad1)*%
X175768000Y-112704000D03*
%TO.P,J3,1*%
%TO.N,Net-(F1-Pad2)*%
X175768000Y-108204000D03*
%TD*%
D16*
%TO.P,Q1,1*%
%TO.N,Net-(Q1-Pad1)*%
X163576000Y-108458000D03*
D17*
%TO.P,Q1,2*%
%TO.N,Net-(F1-Pad1)*%
X166116000Y-108458000D03*
%TO.P,Q1,3*%
%TO.N,GND*%
X168656000Y-108458000D03*
%TD*%
%TO.P,R1,1*%
%TO.N,Net-(R1-Pad1)*%
%TA.AperFunction,SMDPad,CuDef*%
G36*
G01*
X134950000Y-97339999D02*
X134950000Y-98240001D01*
G75*
G02*
X134700001Y-98490000I-249999J0D01*
G01*
X133999999Y-98490000D01*
G75*
G02*
X133750000Y-98240001I0J249999D01*
G01*
X133750000Y-97339999D01*
G75*
G02*
X133999999Y-97090000I249999J0D01*
G01*
X134700001Y-97090000D01*
G75*
G02*
X134950000Y-97339999I0J-249999D01*
G01*
G37*
%TD.AperFunction*%
%TO.P,R1,2*%
%TO.N,Net-(R1-Pad2)*%
%TA.AperFunction,SMDPad,CuDef*%
G36*
G01*
X132950000Y-97339999D02*
X132950000Y-98240001D01*
G75*
G02*
X132700001Y-98490000I-249999J0D01*
G01*
X131999999Y-98490000D01*
G75*
G02*
X131750000Y-98240001I0J249999D01*
G01*
X131750000Y-97339999D01*
G75*
G02*
X131999999Y-97090000I249999J0D01*
G01*
X132700001Y-97090000D01*
G75*
G02*
X132950000Y-97339999I0J-249999D01*
G01*
G37*
%TD.AperFunction*%
%TD*%
%TO.P,R2,2*%
%TO.N,GND*%
%TA.AperFunction,SMDPad,CuDef*%
G36*
G01*
X137036000Y-111956001D02*
X137036000Y-111055999D01*
G75*
G02*
X137285999Y-110806000I249999J0D01*
G01*
X137986001Y-110806000D01*
G75*
G02*
X138236000Y-111055999I0J-249999D01*
G01*
X138236000Y-111956001D01*
G75*
G02*
X137986001Y-112206000I-249999J0D01*
G01*
X137285999Y-112206000D01*
G75*
G02*
X137036000Y-111956001I0J249999D01*
G01*
G37*
%TD.AperFunction*%
%TO.P,R2,1*%
%TO.N,Net-(R2-Pad1)*%
%TA.AperFunction,SMDPad,CuDef*%
G36*
G01*
X135036000Y-111956001D02*
X135036000Y-111055999D01*
G75*
G02*
X135285999Y-110806000I249999J0D01*
G01*
X135986001Y-110806000D01*
G75*
G02*
X136236000Y-111055999I0J-249999D01*
G01*
X136236000Y-111956001D01*
G75*
G02*
X135986001Y-112206000I-249999J0D01*
G01*
X135285999Y-112206000D01*
G75*
G02*
X135036000Y-111956001I0J249999D01*
G01*
G37*
%TD.AperFunction*%
%TD*%
%TO.P,R4,1*%
%TO.N,Net-(R4-Pad1)*%
%TA.AperFunction,SMDPad,CuDef*%
G36*
G01*
X151949999Y-106080000D02*
X152850001Y-106080000D01*
G75*
G02*
X153100000Y-106329999I0J-249999D01*
G01*
X153100000Y-107030001D01*
G75*
G02*
X152850001Y-107280000I-249999J0D01*
G01*
X151949999Y-107280000D01*
G75*
G02*
X151700000Y-107030001I0J249999D01*
G01*
X151700000Y-106329999D01*
G75*
G02*
X151949999Y-106080000I249999J0D01*
G01*
G37*
%TD.AperFunction*%
%TO.P,R4,2*%
%TO.N,GND*%
%TA.AperFunction,SMDPad,CuDef*%
G36*
G01*
X151949999Y-108080000D02*
X152850001Y-108080000D01*
G75*
G02*
X153100000Y-108329999I0J-249999D01*
G01*
X153100000Y-109030001D01*
G75*
G02*
X152850001Y-109280000I-249999J0D01*
G01*
X151949999Y-109280000D01*
G75*
G02*
X151700000Y-109030001I0J249999D01*
G01*
X151700000Y-108329999D01*
G75*
G02*
X151949999Y-108080000I249999J0D01*
G01*
G37*
%TD.AperFunction*%
%TD*%
D18*
%TO.P,RV1,3*%
%TO.N,Net-(R1-Pad2)*%
X132080000Y-100584000D03*
%TO.P,RV1,2*%
%TO.N,Net-(C2-Pad1)*%
X134620000Y-103124000D03*
D19*
%TO.P,RV1,1*%
%TO.N,Net-(R2-Pad1)*%
X132080000Y-105664000D03*
%TD*%
D10*
%TO.P,U1,1*%
%TO.N,Net-(U1-Pad1)*%
X141224000Y-110490000D03*
D20*
%TO.P,U1,5*%
%TO.N,Net-(J2-Pad2)*%
X148844000Y-102870000D03*
%TO.P,U1,2*%
%TO.N,Net-(C2-Pad1)*%
X141224000Y-107950000D03*
%TO.P,U1,6*%
%TO.N,Net-(R4-Pad1)*%
X148844000Y-105410000D03*
%TO.P,U1,3*%
%TO.N,Net-(R1-Pad1)*%
X141224000Y-105410000D03*
%TO.P,U1,7*%
%TO.N,Net-(U1-Pad7)*%
X148844000Y-107950000D03*
%TO.P,U1,4*%
%TO.N,GND*%
X141224000Y-102870000D03*
%TO.P,U1,8*%
%TO.N,Net-(C1-Pad1)*%
X148844000Y-110490000D03*
%TD*%
D21*
%TO.N,GND*%
X137668000Y-111474000D02*
X137636000Y-111506000D01*
X137668000Y-107950000D02*
X137668000Y-111474000D01*
X137636000Y-112206000D02*
X137636000Y-111506000D01*
X136985990Y-112856010D02*
X137636000Y-112206000D01*
X133846012Y-112856010D02*
X136985990Y-112856010D01*
X131480002Y-110490000D02*
X133846012Y-112856010D01*
X130810000Y-110490000D02*
X131480002Y-110490000D01*
D22*
X166572136Y-111395990D02*
X155448000Y-111395990D01*
X168656000Y-109312126D02*
X166572136Y-111395990D01*
X168656000Y-108458000D02*
X168656000Y-109312126D01*
D21*
X168656000Y-104500981D02*
X168656000Y-108458000D01*
X161207018Y-97051999D02*
X168656000Y-104500981D01*
X145518001Y-97051999D02*
X161207018Y-97051999D01*
X144018000Y-98552000D02*
X145518001Y-97051999D01*
X144018000Y-100076000D02*
X141224000Y-102870000D01*
X144018000Y-98552000D02*
X144018000Y-100076000D01*
D23*
X152582000Y-108680000D02*
X155448000Y-111546000D01*
X152400000Y-108680000D02*
X152582000Y-108680000D01*
X144000000Y-111215000D02*
X144000000Y-110490000D01*
X143024999Y-112190001D02*
X144000000Y-111215000D01*
X138320001Y-112190001D02*
X143024999Y-112190001D01*
X137636000Y-111506000D02*
X138320001Y-112190001D01*
D24*
%TO.N,Net-(C1-Pad1)*%
X154504000Y-114990000D02*
X155448000Y-114046000D01*
X149915000Y-114990000D02*
X154504000Y-114990000D01*
X174426000Y-114046000D02*
X175768000Y-112704000D01*
X155448000Y-114046000D02*
X174426000Y-114046000D01*
D23*
X148844000Y-110490000D02*
X148844000Y-113919000D01*
X148844000Y-113919000D02*
X149915000Y-114990000D01*
D24*
X130810000Y-114990000D02*
X149915000Y-114990000D01*
D23*
X148844000Y-110490000D02*
X146075000Y-110490000D01*
%TO.N,Net-(C2-Pad1)*%
X134917000Y-103124000D02*
X137668000Y-105875000D01*
X134620000Y-103124000D02*
X134917000Y-103124000D01*
X139149000Y-105875000D02*
X141224000Y-107950000D01*
X137668000Y-105875000D02*
X139149000Y-105875000D01*
D24*
%TO.N,Net-(F1-Pad1)*%
X156098000Y-100330000D02*
X161798000Y-100330000D01*
D22*
X166116000Y-104648000D02*
X166116000Y-108458000D01*
X161798000Y-100330000D02*
X166116000Y-104648000D01*
D24*
%TO.N,Net-(F1-Pad2)*%
X176098000Y-107874000D02*
X175768000Y-108204000D01*
X176098000Y-100330000D02*
X176098000Y-107874000D01*
X170398000Y-100330000D02*
X176098000Y-100330000D01*
D23*
%TO.N,Net-(J2-Pad2)*%
X146558000Y-100584000D02*
X148844000Y-102870000D01*
X146558000Y-98552000D02*
X146558000Y-100584000D01*
%TO.N,Net-(Q1-Pad1)*%
X153100000Y-101600000D02*
X160020000Y-108520000D01*
X152400000Y-101600000D02*
X153100000Y-101600000D01*
D22*
X163514000Y-108520000D02*
X163576000Y-108458000D01*
X160020000Y-108520000D02*
X163514000Y-108520000D01*
D23*
%TO.N,Net-(R1-Pad1)*%
X141224000Y-105386002D02*
X141224000Y-105410000D01*
X134350000Y-98512002D02*
X141224000Y-105386002D01*
X134350000Y-97790000D02*
X134350000Y-98512002D01*
%TO.N,Net-(R1-Pad2)*%
X132350000Y-100314000D02*
X132080000Y-100584000D01*
X132350000Y-97790000D02*
X132350000Y-100314000D01*
%TO.N,Net-(R2-Pad1)*%
X135636000Y-109220000D02*
X135636000Y-111506000D01*
X132080000Y-105664000D02*
X135636000Y-109220000D01*
%TO.N,Net-(R4-Pad1)*%
X151130000Y-105410000D02*
X152400000Y-106680000D01*
X148844000Y-105410000D02*
X151130000Y-105410000D01*
X152400000Y-103600000D02*
X152400000Y-106680000D01*
%TD*%
D21*
%TO.N,GND*%
X179325000Y-118325000D02*
X127675000Y-118325000D01*
X127675000Y-112490000D01*
X128048332Y-112490000D01*
X128062967Y-112638594D01*
X128106311Y-112781478D01*
X128166333Y-112893771D01*
X128156855Y-112990000D01*
X128156855Y-116990000D01*
X128169405Y-117117422D01*
X128206573Y-117239948D01*
X128266930Y-117352868D01*
X128348157Y-117451843D01*
X128447132Y-117533070D01*
X128560052Y-117593427D01*
X128682578Y-117630595D01*
X128810000Y-117643145D01*
X132810000Y-117643145D01*
X132937422Y-117630595D01*
X133059948Y-117593427D01*
X133172868Y-117533070D01*
X133271843Y-117451843D01*
X133353070Y-117352868D01*
X133413427Y-117239948D01*
X133450595Y-117117422D01*
X133463145Y-116990000D01*
X133463145Y-116890000D01*
X154410671Y-116890000D01*
X154504000Y-116899192D01*
X154597329Y-116890000D01*
X154597337Y-116890000D01*
X154876465Y-116862508D01*
X155234617Y-116753864D01*
X155564691Y-116577436D01*
X155854003Y-116340003D01*
X155913504Y-116267501D01*
X156235005Y-115946000D01*
X174332671Y-115946000D01*
X174426000Y-115955192D01*
X174519329Y-115946000D01*
X174519337Y-115946000D01*
X174798465Y-115918508D01*
X175156617Y-115809864D01*
X175486691Y-115633436D01*
X175776003Y-115396003D01*
X175807893Y-115357145D01*
X177768000Y-115357145D01*
X177895422Y-115344595D01*
X178017948Y-115307427D01*
X178130868Y-115247070D01*
X178229843Y-115165843D01*
X178311070Y-115066868D01*
X178371427Y-114953948D01*
X178408595Y-114831422D01*
X178421145Y-114704000D01*
X178421145Y-110704000D01*
X178408595Y-110576578D01*
X178371427Y-110454052D01*
X178371399Y-110454000D01*
X178371427Y-110453948D01*
X178408595Y-110331422D01*
X178421145Y-110204000D01*
X178421145Y-106204000D01*
X178408595Y-106076578D01*
X178371427Y-105954052D01*
X178311070Y-105841132D01*
X178229843Y-105742157D01*
X178130868Y-105660930D01*
X178017948Y-105600573D01*
X177998000Y-105594522D01*
X177998000Y-100423337D01*
X178007193Y-100330000D01*
X177998000Y-100236663D01*
X177998000Y-100142866D01*
X177979701Y-100050870D01*
X177970508Y-99957535D01*
X177943283Y-99867786D01*
X177924984Y-99775791D01*
X177889090Y-99689135D01*
X177861864Y-99599383D01*
X177817651Y-99516666D01*
X177781758Y-99430013D01*
X177729651Y-99352029D01*
X177685436Y-99269309D01*
X177625933Y-99196805D01*
X177573826Y-99118821D01*
X177507504Y-99052499D01*
X177448003Y-98979997D01*
X177375501Y-98920496D01*
X177309179Y-98854174D01*
X177231195Y-98802067D01*
X177158691Y-98742564D01*
X177075971Y-98698349D01*
X176997987Y-98646242D01*
X176911334Y-98610349D01*
X176828617Y-98566136D01*
X176738865Y-98538910D01*
X176652209Y-98503016D01*
X176560214Y-98484717D01*
X176470465Y-98457492D01*
X176377130Y-98448299D01*
X176285134Y-98430000D01*
X176191337Y-98430000D01*
X176098000Y-98420807D01*
X176004663Y-98430000D01*
X170210866Y-98430000D01*
X170118870Y-98448299D01*
X170025535Y-98457492D01*
X169935786Y-98484717D01*
X169843791Y-98503016D01*
X169757135Y-98538910D01*
X169667383Y-98566136D01*
X169584666Y-98610349D01*
X169498013Y-98646242D01*
X169420029Y-98698349D01*
X169337309Y-98742564D01*
X169264805Y-98802067D01*
X169186821Y-98854174D01*
X169120499Y-98920496D01*
X169047997Y-98979997D01*
X168988496Y-99052499D01*
X168922174Y-99118821D01*
X168870067Y-99196805D01*
X168810564Y-99269309D01*
X168766349Y-99352029D01*
X168714242Y-99430013D01*
X168678349Y-99516666D01*
X168634136Y-99599383D01*
X168606910Y-99689135D01*
X168571016Y-99775791D01*
X168552717Y-99867786D01*
X168525492Y-99957535D01*
X168516299Y-100050870D01*
X168498000Y-100142866D01*
X168498000Y-100236663D01*
X168488807Y-100330000D01*
X168498000Y-100423337D01*
X168498000Y-100517134D01*
X168516299Y-100609130D01*
X168525492Y-100702465D01*
X168552717Y-100792214D01*
X168571016Y-100884209D01*
X168606910Y-100970865D01*
X168634136Y-101060617D01*
X168678349Y-101143334D01*
X168714242Y-101229987D01*
X168766349Y-101307971D01*
X168810564Y-101390691D01*
X168870067Y-101463195D01*
X168922174Y-101541179D01*
X168988496Y-101607501D01*
X169047997Y-101680003D01*
X169120499Y-101739504D01*
X169186821Y-101805826D01*
X169264805Y-101857933D01*
X169337309Y-101917436D01*
X169420029Y-101961651D01*
X169498013Y-102013758D01*
X169584666Y-102049651D01*
X169667383Y-102093864D01*
X169757135Y-102121090D01*
X169843791Y-102156984D01*
X169935786Y-102175283D01*
X170025535Y-102202508D01*
X170118870Y-102211701D01*
X170210866Y-102230000D01*
X174198000Y-102230000D01*
X174198001Y-105550855D01*
X173768000Y-105550855D01*
X173640578Y-105563405D01*
X173518052Y-105600573D01*
X173405132Y-105660930D01*
X173306157Y-105742157D01*
X173224930Y-105841132D01*
X173164573Y-105954052D01*
X173127405Y-106076578D01*
X173114855Y-106204000D01*
X173114855Y-110204000D01*
X173127405Y-110331422D01*
X173164573Y-110453948D01*
X173164601Y-110454000D01*
X173164573Y-110454052D01*
X173127405Y-110576578D01*
X173114855Y-110704000D01*
X173114855Y-112146000D01*
X156889214Y-112146000D01*
X156971211Y-111907577D01*
X157012483Y-111603466D01*
X156993633Y-111297146D01*
X156915385Y-111000389D01*
X156780746Y-110724601D01*
X156716894Y-110629039D01*
X156423830Y-110575827D01*
X155453657Y-111546000D01*
X155467799Y-111560142D01*
X155462142Y-111565799D01*
X155448000Y-111551657D01*
X155433858Y-111565799D01*
X155428201Y-111560142D01*
X155442343Y-111546000D01*
X154472170Y-110575827D01*
X154179106Y-110629039D01*
X154024598Y-110894207D01*
X153924789Y-111184423D01*
X153883517Y-111488534D01*
X153902367Y-111794854D01*
X153980615Y-112091611D01*
X154115254Y-112367399D01*
X154179106Y-112462961D01*
X154345203Y-112493119D01*
X154097997Y-112695997D01*
X154038498Y-112768497D01*
X153716995Y-113090000D01*
X149994000Y-113090000D01*
X149994000Y-111378835D01*
X150128973Y-111176833D01*
X150238277Y-110912949D01*
X150294000Y-110632813D01*
X150294000Y-110570170D01*
X154477827Y-110570170D01*
X155448000Y-111540343D01*
X156418173Y-110570170D01*
X156364961Y-110277106D01*
X156099793Y-110122598D01*
X155809577Y-110022789D01*
X155505466Y-109981517D01*
X155199146Y-110000367D01*
X154902389Y-110078615D01*
X154626601Y-110213254D01*
X154531039Y-110277106D01*
X154477827Y-110570170D01*
X150294000Y-110570170D01*
X150294000Y-110347187D01*
X150238277Y-110067051D01*
X150128973Y-109803167D01*
X149970289Y-109565679D01*
X149768321Y-109363711D01*
X149643039Y-109280000D01*
X150938332Y-109280000D01*
X150952967Y-109428594D01*
X150996311Y-109571478D01*
X151066696Y-109703160D01*
X151161419Y-109818581D01*
X151276840Y-109913304D01*
X151408522Y-109983689D01*
X151551406Y-110027033D01*
X151700000Y-110041668D01*
X152206500Y-110038000D01*
X152396000Y-109848500D01*
X152396000Y-108684000D01*
X152404000Y-108684000D01*
X152404000Y-109848500D01*
X152593500Y-110038000D01*
X153100000Y-110041668D01*
X153248594Y-110027033D01*
X153391478Y-109983689D01*
X153523160Y-109913304D01*
X153638581Y-109818581D01*
X153733304Y-109703160D01*
X153803689Y-109571478D01*
X153847033Y-109428594D01*
X153861668Y-109280000D01*
X153858000Y-108873500D01*
X153668500Y-108684000D01*
X152404000Y-108684000D01*
X152396000Y-108684000D01*
X151131500Y-108684000D01*
X150942000Y-108873500D01*
X150938332Y-109280000D01*
X149643039Y-109280000D01*
X149553242Y-109220000D01*
X149768321Y-109076289D01*
X149970289Y-108874321D01*
X150128973Y-108636833D01*
X150238277Y-108372949D01*
X150294000Y-108092813D01*
X150294000Y-107807187D01*
X150238277Y-107527051D01*
X150128973Y-107263167D01*
X149970289Y-107025679D01*
X149768321Y-106823711D01*
X149553242Y-106680000D01*
X149732835Y-106560000D01*
X150653655Y-106560000D01*
X151046855Y-106953200D01*
X151046855Y-107030001D01*
X151064209Y-107206196D01*
X151115603Y-107375619D01*
X151191173Y-107517001D01*
X151161419Y-107541419D01*
X151066696Y-107656840D01*
X150996311Y-107788522D01*
X150952967Y-107931406D01*
X150938332Y-108080000D01*
X150942000Y-108486500D01*
X151131500Y-108676000D01*
X152396000Y-108676000D01*
X152396000Y-108656000D01*
X152404000Y-108656000D01*
X152404000Y-108676000D01*
X153668500Y-108676000D01*
X153858000Y-108486500D01*
X153861668Y-108080000D01*
X153847033Y-107931406D01*
X153803689Y-107788522D01*
X153733304Y-107656840D01*
X153638581Y-107541419D01*
X153608827Y-107517001D01*
X153684397Y-107375619D01*
X153735791Y-107206196D01*
X153753145Y-107030001D01*
X153753145Y-106329999D01*
X153735791Y-106153804D01*
X153684397Y-105984381D01*
X153600938Y-105828239D01*
X153550000Y-105766171D01*
X153550000Y-104513829D01*
X153600938Y-104451761D01*
X153684397Y-104295619D01*
X153735791Y-104126196D01*
X153753145Y-103950001D01*
X153753145Y-103879489D01*
X158364854Y-108491199D01*
X158362017Y-108520000D01*
X158393875Y-108843456D01*
X158488223Y-109154483D01*
X158641438Y-109441126D01*
X158847629Y-109692371D01*
X159098874Y-109898562D01*
X159385517Y-110051777D01*
X159696544Y-110146125D01*
X159938948Y-110170000D01*
X163432958Y-110170000D01*
X163514000Y-110177982D01*
X163595042Y-110170000D01*
X163595052Y-110170000D01*
X163837456Y-110146125D01*
X163952771Y-110111145D01*
X164528500Y-110111145D01*
X164655922Y-110098595D01*
X164778448Y-110061427D01*
X164891368Y-110001070D01*
X164990343Y-109919843D01*
X165071570Y-109820868D01*
X165103336Y-109761438D01*
X165194875Y-109836562D01*
X165481518Y-109989777D01*
X165792545Y-110084125D01*
X166116000Y-110115983D01*
X166439456Y-110084125D01*
X166750483Y-109989777D01*
X167037126Y-109836562D01*
X167288371Y-109630371D01*
X167332680Y-109576380D01*
X167449323Y-109717834D01*
X167709024Y-109929950D01*
X168005116Y-110087325D01*
X168326221Y-110183912D01*
X168384469Y-110194310D01*
X168652000Y-110026495D01*
X168652000Y-108462000D01*
X168660000Y-108462000D01*
X168660000Y-110026495D01*
X168927531Y-110194310D01*
X168985779Y-110183912D01*
X169306884Y-110087325D01*
X169602976Y-109929950D01*
X169862677Y-109717834D01*
X170076006Y-109459128D01*
X170234765Y-109163775D01*
X170332853Y-108843125D01*
X170366500Y-108509500D01*
X170366500Y-108462000D01*
X168660000Y-108462000D01*
X168652000Y-108462000D01*
X168632000Y-108462000D01*
X168632000Y-108454000D01*
X168652000Y-108454000D01*
X168652000Y-106889505D01*
X168660000Y-106889505D01*
X168660000Y-108454000D01*
X170366500Y-108454000D01*
X170366500Y-108406500D01*
X170332853Y-108072875D01*
X170234765Y-107752225D01*
X170076006Y-107456872D01*
X169862677Y-107198166D01*
X169602976Y-106986050D01*
X169306884Y-106828675D01*
X168985779Y-106732088D01*
X168927531Y-106721690D01*
X168660000Y-106889505D01*
X168652000Y-106889505D01*
X168384469Y-106721690D01*
X168326221Y-106732088D01*
X168005116Y-106828675D01*
X167766000Y-106955767D01*
X167766000Y-104729041D01*
X167773982Y-104647999D01*
X167766000Y-104566957D01*
X167766000Y-104566948D01*
X167742125Y-104324544D01*
X167647777Y-104013517D01*
X167494562Y-103726874D01*
X167288371Y-103475629D01*
X167225413Y-103423961D01*
X163636838Y-99835387D01*
X163624984Y-99775791D01*
X163589090Y-99689135D01*
X163561864Y-99599383D01*
X163517651Y-99516666D01*
X163481758Y-99430013D01*
X163429651Y-99352029D01*
X163385436Y-99269309D01*
X163325933Y-99196805D01*
X163273826Y-99118821D01*
X163207504Y-99052499D01*
X163148003Y-98979997D01*
X163075501Y-98920496D01*
X163009179Y-98854174D01*
X162931195Y-98802067D01*
X162858691Y-98742564D01*
X162775971Y-98698349D01*
X162697987Y-98646242D01*
X162611334Y-98610349D01*
X162528617Y-98566136D01*
X162438865Y-98538910D01*
X162352209Y-98503016D01*
X162260214Y-98484717D01*
X162170465Y-98457492D01*
X162077130Y-98448299D01*
X161985134Y-98430000D01*
X155910866Y-98430000D01*
X155818870Y-98448299D01*
X155725535Y-98457492D01*
X155635786Y-98484717D01*
X155543791Y-98503016D01*
X155457135Y-98538910D01*
X155367383Y-98566136D01*
X155284666Y-98610349D01*
X155198013Y-98646242D01*
X155120029Y-98698349D01*
X155037309Y-98742564D01*
X154964805Y-98802067D01*
X154886821Y-98854174D01*
X154820499Y-98920496D01*
X154747997Y-98979997D01*
X154688496Y-99052499D01*
X154622174Y-99118821D01*
X154570067Y-99196805D01*
X154510564Y-99269309D01*
X154466349Y-99352029D01*
X154414242Y-99430013D01*
X154378349Y-99516666D01*
X154334136Y-99599383D01*
X154306910Y-99689135D01*
X154271016Y-99775791D01*
X154252717Y-99867786D01*
X154225492Y-99957535D01*
X154216299Y-100050870D01*
X154198000Y-100142866D01*
X154198000Y-100236663D01*
X154188807Y-100330000D01*
X154198000Y-100423337D01*
X154198000Y-100517134D01*
X154216299Y-100609130D01*
X154225492Y-100702465D01*
X154252717Y-100792214D01*
X154271016Y-100884209D01*
X154306910Y-100970865D01*
X154334136Y-101060617D01*
X154378349Y-101143334D01*
X154414242Y-101229987D01*
X154466349Y-101307971D01*
X154503133Y-101376789D01*
X153953125Y-100826781D01*
X153917107Y-100782893D01*
X153741997Y-100639184D01*
X153542215Y-100532398D01*
X153325439Y-100466640D01*
X153283347Y-100462494D01*
X153195619Y-100415603D01*
X153026196Y-100364209D01*
X152850001Y-100346855D01*
X151949999Y-100346855D01*
X151773804Y-100364209D01*
X151604381Y-100415603D01*
X151448239Y-100499062D01*
X151311380Y-100611380D01*
X151199062Y-100748239D01*
X151115603Y-100904381D01*
X151064209Y-101073804D01*
X151046855Y-101249999D01*
X151046855Y-101950001D01*
X151064209Y-102126196D01*
X151115603Y-102295619D01*
X151199062Y-102451761D01*
X151311380Y-102588620D01*
X151325246Y-102600000D01*
X151311380Y-102611380D01*
X151199062Y-102748239D01*
X151115603Y-102904381D01*
X151064209Y-103073804D01*
X151046855Y-103249999D01*
X151046855Y-103950001D01*
X151064209Y-104126196D01*
X151103891Y-104257009D01*
X151073518Y-104260000D01*
X149732835Y-104260000D01*
X149553242Y-104140000D01*
X149768321Y-103996289D01*
X149970289Y-103794321D01*
X150128973Y-103556833D01*
X150238277Y-103292949D01*
X150294000Y-103012813D01*
X150294000Y-102727187D01*
X150238277Y-102447051D01*
X150128973Y-102183167D01*
X149970289Y-101945679D01*
X149768321Y-101743711D01*
X149530833Y-101585027D01*
X149266949Y-101475723D01*
X149028672Y-101428326D01*
X147708000Y-100107656D01*
X147708000Y-99523320D01*
X147723126Y-99508194D01*
X147887283Y-99262517D01*
X148000356Y-98989534D01*
X148058000Y-98699737D01*
X148058000Y-98404263D01*
X148000356Y-98114466D01*
X147887283Y-97841483D01*
X147723126Y-97595806D01*
X147514194Y-97386874D01*
X147268517Y-97222717D01*
X146995534Y-97109644D01*
X146705737Y-97052000D01*
X146410263Y-97052000D01*
X146120466Y-97109644D01*
X145847483Y-97222717D01*
X145601806Y-97386874D01*
X145573195Y-97415485D01*
X145571689Y-97410522D01*
X145501304Y-97278840D01*
X145406581Y-97163419D01*
X145291160Y-97068696D01*
X145159478Y-96998311D01*
X145016594Y-96954967D01*
X144868000Y-96940332D01*
X144211500Y-96944000D01*
X144022000Y-97133500D01*
X144022000Y-98548000D01*
X144042000Y-98548000D01*
X144042000Y-98556000D01*
X144022000Y-98556000D01*
X144022000Y-99970500D01*
X144211500Y-100160000D01*
X144868000Y-100163668D01*
X145016594Y-100149033D01*
X145159478Y-100105689D01*
X145291160Y-100035304D01*
X145406581Y-99940581D01*
X145408001Y-99938851D01*
X145408001Y-100527509D01*
X145402437Y-100584000D01*
X145408001Y-100640492D01*
X145424641Y-100809439D01*
X145490399Y-101026215D01*
X145597185Y-101225997D01*
X145740894Y-101401107D01*
X145784774Y-101437118D01*
X147402326Y-103054672D01*
X147449723Y-103292949D01*
X147559027Y-103556833D01*
X147717711Y-103794321D01*
X147919679Y-103996289D01*
X148134758Y-104140000D01*
X147919679Y-104283711D01*
X147717711Y-104485679D01*
X147559027Y-104723167D01*
X147449723Y-104987051D01*
X147394000Y-105267187D01*
X147394000Y-105552813D01*
X147449723Y-105832949D01*
X147559027Y-106096833D01*
X147717711Y-106334321D01*
X147919679Y-106536289D01*
X148134758Y-106680000D01*
X147919679Y-106823711D01*
X147717711Y-107025679D01*
X147559027Y-107263167D01*
X147449723Y-107527051D01*
X147394000Y-107807187D01*
X147394000Y-108092813D01*
X147449723Y-108372949D01*
X147559027Y-108636833D01*
X147717711Y-108874321D01*
X147919679Y-109076289D01*
X148134758Y-109220000D01*
X147955165Y-109340000D01*
X147006791Y-109340000D01*
X146914260Y-109264062D01*
X146758119Y-109180603D01*
X146588695Y-109129209D01*
X146412500Y-109111855D01*
X145737500Y-109111855D01*
X145561305Y-109129209D01*
X145391881Y-109180603D01*
X145235740Y-109264062D01*
X145188673Y-109302689D01*
X145126081Y-109226419D01*
X145010660Y-109131696D01*
X144878978Y-109061311D01*
X144736094Y-109017967D01*
X144587500Y-109003332D01*
X144193500Y-109007000D01*
X144004000Y-109196500D01*
X144004000Y-110486000D01*
X144024000Y-110486000D01*
X144024000Y-110494000D01*
X144004000Y-110494000D01*
X144004000Y-111783500D01*
X144193500Y-111973000D01*
X144587500Y-111976668D01*
X144736094Y-111962033D01*
X144878978Y-111918689D01*
X145010660Y-111848304D01*
X145126081Y-111753581D01*
X145188673Y-111677311D01*
X145235740Y-111715938D01*
X145391881Y-111799397D01*
X145561305Y-111850791D01*
X145737500Y-111868145D01*
X146412500Y-111868145D01*
X146588695Y-111850791D01*
X146758119Y-111799397D01*
X146914260Y-111715938D01*
X147006791Y-111640000D01*
X147694000Y-111640000D01*
X147694001Y-113090000D01*
X133463145Y-113090000D01*
X133463145Y-112990000D01*
X133453667Y-112893771D01*
X133513689Y-112781478D01*
X133557033Y-112638594D01*
X133571668Y-112490000D01*
X133568000Y-110683500D01*
X133378500Y-110494000D01*
X130814000Y-110494000D01*
X130814000Y-110514000D01*
X130806000Y-110514000D01*
X130806000Y-110494000D01*
X128241500Y-110494000D01*
X128052000Y-110683500D01*
X128048332Y-112490000D01*
X127675000Y-112490000D01*
X127675000Y-108490000D01*
X128048332Y-108490000D01*
X128052000Y-110296500D01*
X128241500Y-110486000D01*
X130806000Y-110486000D01*
X130806000Y-107921500D01*
X130814000Y-107921500D01*
X130814000Y-110486000D01*
X133378500Y-110486000D01*
X133568000Y-110296500D01*
X133571076Y-108781422D01*
X134486000Y-109696346D01*
X134486001Y-110646027D01*
X134451603Y-110710381D01*
X134400209Y-110879804D01*
X134382855Y-111055999D01*
X134382855Y-111956001D01*
X134400209Y-112132196D01*
X134451603Y-112301619D01*
X134535062Y-112457761D01*
X134647380Y-112594620D01*
X134784239Y-112706938D01*
X134940381Y-112790397D01*
X135109804Y-112841791D01*
X135285999Y-112859145D01*
X135986001Y-112859145D01*
X136162196Y-112841791D01*
X136331619Y-112790397D01*
X136473001Y-112714827D01*
X136497419Y-112744581D01*
X136612840Y-112839304D01*
X136744522Y-112909689D01*
X136887406Y-112953033D01*
X137036000Y-112967668D01*
X137442500Y-112964000D01*
X137632000Y-112774500D01*
X137632000Y-111510000D01*
X137640000Y-111510000D01*
X137640000Y-112774500D01*
X137829500Y-112964000D01*
X138236000Y-112967668D01*
X138384594Y-112953033D01*
X138527478Y-112909689D01*
X138659160Y-112839304D01*
X138774581Y-112744581D01*
X138869304Y-112629160D01*
X138939689Y-112497478D01*
X138983033Y-112354594D01*
X138997668Y-112206000D01*
X138994000Y-111699500D01*
X138804500Y-111510000D01*
X137640000Y-111510000D01*
X137632000Y-111510000D01*
X137612000Y-111510000D01*
X137612000Y-111502000D01*
X137632000Y-111502000D01*
X137632000Y-110237500D01*
X137640000Y-110237500D01*
X137640000Y-111502000D01*
X138804500Y-111502000D01*
X138994000Y-111312500D01*
X138997668Y-110806000D01*
X138983033Y-110657406D01*
X138939689Y-110514522D01*
X138869304Y-110382840D01*
X138774581Y-110267419D01*
X138659160Y-110172696D01*
X138527478Y-110102311D01*
X138384594Y-110058967D01*
X138236000Y-110044332D01*
X137829500Y-110048000D01*
X137640000Y-110237500D01*
X137632000Y-110237500D01*
X137442500Y-110048000D01*
X137036000Y-110044332D01*
X136887406Y-110058967D01*
X136786000Y-110089729D01*
X136786000Y-109281983D01*
X136794406Y-109284533D01*
X136943000Y-109299168D01*
X137474500Y-109295500D01*
X137664000Y-109106000D01*
X137664000Y-107954000D01*
X137672000Y-107954000D01*
X137672000Y-109106000D01*
X137861500Y-109295500D01*
X138393000Y-109299168D01*
X138541594Y-109284533D01*
X138684478Y-109241189D01*
X138816160Y-109170804D01*
X138931581Y-109076081D01*
X139026304Y-108960660D01*
X139096689Y-108828978D01*
X139140033Y-108686094D01*
X139154668Y-108537500D01*
X139151000Y-108143500D01*
X138961500Y-107954000D01*
X137672000Y-107954000D01*
X137664000Y-107954000D01*
X136374500Y-107954000D01*
X136185423Y-108143077D01*
X133344145Y-105301801D01*
X133344145Y-105053000D01*
X133331595Y-104925578D01*
X133294427Y-104803052D01*
X133234070Y-104690132D01*
X133152843Y-104591157D01*
X133053868Y-104509930D01*
X132940948Y-104449573D01*
X132818422Y-104412405D01*
X132691000Y-104399855D01*
X131469000Y-104399855D01*
X131341578Y-104412405D01*
X131219052Y-104449573D01*
X131106132Y-104509930D01*
X131007157Y-104591157D01*
X130925930Y-104690132D01*
X130865573Y-104803052D01*
X130828405Y-104925578D01*
X130815855Y-105053000D01*
X130815855Y-106275000D01*
X130828405Y-106402422D01*
X130865573Y-106524948D01*
X130925930Y-106637868D01*
X131007157Y-106736843D01*
X131106132Y-106818070D01*
X131219052Y-106878427D01*
X131341578Y-106915595D01*
X131469000Y-106928145D01*
X131717801Y-106928145D01*
X132518579Y-107728924D01*
X131003500Y-107732000D01*
X130814000Y-107921500D01*
X130806000Y-107921500D01*
X130616500Y-107732000D01*
X128810000Y-107728332D01*
X128661406Y-107742967D01*
X128518522Y-107786311D01*
X128386840Y-107856696D01*
X128271419Y-107951419D01*
X128176696Y-108066840D01*
X128106311Y-108198522D01*
X128062967Y-108341406D01*
X128048332Y-108490000D01*
X127675000Y-108490000D01*
X127675000Y-100459802D01*
X130819000Y-100459802D01*
X130819000Y-100708198D01*
X130867460Y-100951820D01*
X130962517Y-101181307D01*
X131100518Y-101387840D01*
X131276160Y-101563482D01*
X131482693Y-101701483D01*
X131712180Y-101796540D01*
X131955802Y-101845000D01*
X132204198Y-101845000D01*
X132447820Y-101796540D01*
X132677307Y-101701483D01*
X132883840Y-101563482D01*
X133059482Y-101387840D01*
X133197483Y-101181307D01*
X133270422Y-101005217D01*
X133310816Y-100955997D01*
X133417602Y-100756215D01*
X133483360Y-100539439D01*
X133500000Y-100370492D01*
X133505564Y-100314000D01*
X133500000Y-100257508D01*
X133500000Y-99289028D01*
X133532894Y-99329109D01*
X133576776Y-99365122D01*
X138936653Y-104725000D01*
X138529585Y-104725000D01*
X138488619Y-104703103D01*
X138319195Y-104651709D01*
X138143000Y-104634355D01*
X138053701Y-104634355D01*
X135770124Y-102350780D01*
X135734107Y-102306893D01*
X135558997Y-102163184D01*
X135359215Y-102056398D01*
X135236038Y-102019033D01*
X135217307Y-102006517D01*
X134987820Y-101911460D01*
X134744198Y-101863000D01*
X134495802Y-101863000D01*
X134252180Y-101911460D01*
X134022693Y-102006517D01*
X133816160Y-102144518D01*
X133640518Y-102320160D01*
X133502517Y-102526693D01*
X133407460Y-102756180D01*
X133359000Y-102999802D01*
X133359000Y-103248198D01*
X133407460Y-103491820D01*
X133502517Y-103721307D01*
X133640518Y-103927840D01*
X133816160Y-104103482D01*
X134022693Y-104241483D01*
X134252180Y-104336540D01*
X134495802Y-104385000D01*
X134551656Y-104385000D01*
X136289855Y-106123201D01*
X136289855Y-106212500D01*
X136307209Y-106388695D01*
X136358603Y-106558119D01*
X136442062Y-106714260D01*
X136480689Y-106761327D01*
X136404419Y-106823919D01*
X136309696Y-106939340D01*
X136239311Y-107071022D01*
X136195967Y-107213906D01*
X136181332Y-107362500D01*
X136185000Y-107756500D01*
X136374500Y-107946000D01*
X137664000Y-107946000D01*
X137664000Y-107926000D01*
X137672000Y-107926000D01*
X137672000Y-107946000D01*
X138961500Y-107946000D01*
X139151000Y-107756500D01*
X139153335Y-107505680D01*
X139782326Y-108134672D01*
X139829723Y-108372949D01*
X139939027Y-108636833D01*
X140097711Y-108874321D01*
X140278330Y-109054940D01*
X140174052Y-109086573D01*
X140061132Y-109146930D01*
X139962157Y-109228157D01*
X139880930Y-109327132D01*
X139820573Y-109440052D01*
X139783405Y-109562578D01*
X139770855Y-109690000D01*
X139770855Y-111290000D01*
X139783405Y-111417422D01*
X139820573Y-111539948D01*
X139880930Y-111652868D01*
X139962157Y-111751843D01*
X140061132Y-111833070D01*
X140174052Y-111893427D01*
X140296578Y-111930595D01*
X140424000Y-111943145D01*
X142024000Y-111943145D01*
X142151422Y-111930595D01*
X142273948Y-111893427D01*
X142386868Y-111833070D01*
X142485843Y-111751843D01*
X142567070Y-111652868D01*
X142627427Y-111539948D01*
X142664595Y-111417422D01*
X142668811Y-111374617D01*
X142708811Y-111506478D01*
X142779196Y-111638160D01*
X142873919Y-111753581D01*
X142989340Y-111848304D01*
X143121022Y-111918689D01*
X143263906Y-111962033D01*
X143412500Y-111976668D01*
X143806500Y-111973000D01*
X143996000Y-111783500D01*
X143996000Y-110494000D01*
X143976000Y-110494000D01*
X143976000Y-110486000D01*
X143996000Y-110486000D01*
X143996000Y-109196500D01*
X143806500Y-109007000D01*
X143412500Y-109003332D01*
X143263906Y-109017967D01*
X143121022Y-109061311D01*
X142989340Y-109131696D01*
X142873919Y-109226419D01*
X142779196Y-109341840D01*
X142708811Y-109473522D01*
X142668811Y-109605383D01*
X142664595Y-109562578D01*
X142627427Y-109440052D01*
X142567070Y-109327132D01*
X142485843Y-109228157D01*
X142386868Y-109146930D01*
X142273948Y-109086573D01*
X142169670Y-109054940D01*
X142350289Y-108874321D01*
X142508973Y-108636833D01*
X142618277Y-108372949D01*
X142674000Y-108092813D01*
X142674000Y-107807187D01*
X142618277Y-107527051D01*
X142508973Y-107263167D01*
X142350289Y-107025679D01*
X142148321Y-106823711D01*
X141933242Y-106680000D01*
X142148321Y-106536289D01*
X142350289Y-106334321D01*
X142508973Y-106096833D01*
X142618277Y-105832949D01*
X142674000Y-105552813D01*
X142674000Y-105267187D01*
X142618277Y-104987051D01*
X142508973Y-104723167D01*
X142350289Y-104485679D01*
X142148321Y-104283711D01*
X142027633Y-104203070D01*
X142041461Y-104196319D01*
X142284506Y-104011355D01*
X142486796Y-103782530D01*
X142640558Y-103518637D01*
X142739882Y-103229817D01*
X142762188Y-103117675D01*
X142592494Y-102874000D01*
X141228000Y-102874000D01*
X141228000Y-102894000D01*
X141220000Y-102894000D01*
X141220000Y-102874000D01*
X141200000Y-102874000D01*
X141200000Y-102866000D01*
X141220000Y-102866000D01*
X141220000Y-101501505D01*
X141228000Y-101501505D01*
X141228000Y-102866000D01*
X142592494Y-102866000D01*
X142762188Y-102622325D01*
X142739882Y-102510183D01*
X142640558Y-102221363D01*
X142486796Y-101957470D01*
X142284506Y-101728645D01*
X142041461Y-101543681D01*
X141767002Y-101409687D01*
X141471675Y-101331812D01*
X141228000Y-101501505D01*
X141220000Y-101501505D01*
X140976325Y-101331812D01*
X140680998Y-101409687D01*
X140406539Y-101543681D01*
X140163494Y-101728645D01*
X139961204Y-101957470D01*
X139807442Y-102221363D01*
X139776290Y-102311948D01*
X136866342Y-99402000D01*
X142406332Y-99402000D01*
X142420967Y-99550594D01*
X142464311Y-99693478D01*
X142534696Y-99825160D01*
X142629419Y-99940581D01*
X142744840Y-100035304D01*
X142876522Y-100105689D01*
X143019406Y-100149033D01*
X143168000Y-100163668D01*
X143824500Y-100160000D01*
X144014000Y-99970500D01*
X144014000Y-98556000D01*
X142599500Y-98556000D01*
X142410000Y-98745500D01*
X142406332Y-99402000D01*
X136866342Y-99402000D01*
X135603145Y-98138803D01*
X135603145Y-97702000D01*
X142406332Y-97702000D01*
X142410000Y-98358500D01*
X142599500Y-98548000D01*
X144014000Y-98548000D01*
X144014000Y-97133500D01*
X143824500Y-96944000D01*
X143168000Y-96940332D01*
X143019406Y-96954967D01*
X142876522Y-96998311D01*
X142744840Y-97068696D01*
X142629419Y-97163419D01*
X142534696Y-97278840D01*
X142464311Y-97410522D01*
X142420967Y-97553406D01*
X142406332Y-97702000D01*
X135603145Y-97702000D01*
X135603145Y-97339999D01*
X135585791Y-97163804D01*
X135534397Y-96994381D01*
X135450938Y-96838239D01*
X135338620Y-96701380D01*
X135201761Y-96589062D01*
X135045619Y-96505603D01*
X134876196Y-96454209D01*
X134700001Y-96436855D01*
X133999999Y-96436855D01*
X133823804Y-96454209D01*
X133654381Y-96505603D01*
X133498239Y-96589062D01*
X133361380Y-96701380D01*
X133350000Y-96715246D01*
X133338620Y-96701380D01*
X133201761Y-96589062D01*
X133045619Y-96505603D01*
X132876196Y-96454209D01*
X132700001Y-96436855D01*
X131999999Y-96436855D01*
X131823804Y-96454209D01*
X131654381Y-96505603D01*
X131498239Y-96589062D01*
X131361380Y-96701380D01*
X131249062Y-96838239D01*
X131165603Y-96994381D01*
X131114209Y-97163804D01*
X131096855Y-97339999D01*
X131096855Y-98240001D01*
X131114209Y-98416196D01*
X131165603Y-98585619D01*
X131200000Y-98649972D01*
X131200001Y-99680677D01*
X131100518Y-99780160D01*
X130962517Y-99986693D01*
X130867460Y-100216180D01*
X130819000Y-100459802D01*
X127675000Y-100459802D01*
X127675000Y-95675000D01*
X179325001Y-95675000D01*
X179325000Y-118325000D01*
%TA.AperFunction,Conductor*%
D25*
G36*
X179325000Y-118325000D02*
G01*
X127675000Y-118325000D01*
X127675000Y-112490000D01*
X128048332Y-112490000D01*
X128062967Y-112638594D01*
X128106311Y-112781478D01*
X128166333Y-112893771D01*
X128156855Y-112990000D01*
X128156855Y-116990000D01*
X128169405Y-117117422D01*
X128206573Y-117239948D01*
X128266930Y-117352868D01*
X128348157Y-117451843D01*
X128447132Y-117533070D01*
X128560052Y-117593427D01*
X128682578Y-117630595D01*
X128810000Y-117643145D01*
X132810000Y-117643145D01*
X132937422Y-117630595D01*
X133059948Y-117593427D01*
X133172868Y-117533070D01*
X133271843Y-117451843D01*
X133353070Y-117352868D01*
X133413427Y-117239948D01*
X133450595Y-117117422D01*
X133463145Y-116990000D01*
X133463145Y-116890000D01*
X154410671Y-116890000D01*
X154504000Y-116899192D01*
X154597329Y-116890000D01*
X154597337Y-116890000D01*
X154876465Y-116862508D01*
X155234617Y-116753864D01*
X155564691Y-116577436D01*
X155854003Y-116340003D01*
X155913504Y-116267501D01*
X156235005Y-115946000D01*
X174332671Y-115946000D01*
X174426000Y-115955192D01*
X174519329Y-115946000D01*
X174519337Y-115946000D01*
X174798465Y-115918508D01*
X175156617Y-115809864D01*
X175486691Y-115633436D01*
X175776003Y-115396003D01*
X175807893Y-115357145D01*
X177768000Y-115357145D01*
X177895422Y-115344595D01*
X178017948Y-115307427D01*
X178130868Y-115247070D01*
X178229843Y-115165843D01*
X178311070Y-115066868D01*
X178371427Y-114953948D01*
X178408595Y-114831422D01*
X178421145Y-114704000D01*
X178421145Y-110704000D01*
X178408595Y-110576578D01*
X178371427Y-110454052D01*
X178371399Y-110454000D01*
X178371427Y-110453948D01*
X178408595Y-110331422D01*
X178421145Y-110204000D01*
X178421145Y-106204000D01*
X178408595Y-106076578D01*
X178371427Y-105954052D01*
X178311070Y-105841132D01*
X178229843Y-105742157D01*
X178130868Y-105660930D01*
X178017948Y-105600573D01*
X177998000Y-105594522D01*
X177998000Y-100423337D01*
X178007193Y-100330000D01*
X177998000Y-100236663D01*
X177998000Y-100142866D01*
X177979701Y-100050870D01*
X177970508Y-99957535D01*
X177943283Y-99867786D01*
X177924984Y-99775791D01*
X177889090Y-99689135D01*
X177861864Y-99599383D01*
X177817651Y-99516666D01*
X177781758Y-99430013D01*
X177729651Y-99352029D01*
X177685436Y-99269309D01*
X177625933Y-99196805D01*
X177573826Y-99118821D01*
X177507504Y-99052499D01*
X177448003Y-98979997D01*
X177375501Y-98920496D01*
X177309179Y-98854174D01*
X177231195Y-98802067D01*
X177158691Y-98742564D01*
X177075971Y-98698349D01*
X176997987Y-98646242D01*
X176911334Y-98610349D01*
X176828617Y-98566136D01*
X176738865Y-98538910D01*
X176652209Y-98503016D01*
X176560214Y-98484717D01*
X176470465Y-98457492D01*
X176377130Y-98448299D01*
X176285134Y-98430000D01*
X176191337Y-98430000D01*
X176098000Y-98420807D01*
X176004663Y-98430000D01*
X170210866Y-98430000D01*
X170118870Y-98448299D01*
X170025535Y-98457492D01*
X169935786Y-98484717D01*
X169843791Y-98503016D01*
X169757135Y-98538910D01*
X169667383Y-98566136D01*
X169584666Y-98610349D01*
X169498013Y-98646242D01*
X169420029Y-98698349D01*
X169337309Y-98742564D01*
X169264805Y-98802067D01*
X169186821Y-98854174D01*
X169120499Y-98920496D01*
X169047997Y-98979997D01*
X168988496Y-99052499D01*
X168922174Y-99118821D01*
X168870067Y-99196805D01*
X168810564Y-99269309D01*
X168766349Y-99352029D01*
X168714242Y-99430013D01*
X168678349Y-99516666D01*
X168634136Y-99599383D01*
X168606910Y-99689135D01*
X168571016Y-99775791D01*
X168552717Y-99867786D01*
X168525492Y-99957535D01*
X168516299Y-100050870D01*
X168498000Y-100142866D01*
X168498000Y-100236663D01*
X168488807Y-100330000D01*
X168498000Y-100423337D01*
X168498000Y-100517134D01*
X168516299Y-100609130D01*
X168525492Y-100702465D01*
X168552717Y-100792214D01*
X168571016Y-100884209D01*
X168606910Y-100970865D01*
X168634136Y-101060617D01*
X168678349Y-101143334D01*
X168714242Y-101229987D01*
X168766349Y-101307971D01*
X168810564Y-101390691D01*
X168870067Y-101463195D01*
X168922174Y-101541179D01*
X168988496Y-101607501D01*
X169047997Y-101680003D01*
X169120499Y-101739504D01*
X169186821Y-101805826D01*
X169264805Y-101857933D01*
X169337309Y-101917436D01*
X169420029Y-101961651D01*
X169498013Y-102013758D01*
X169584666Y-102049651D01*
X169667383Y-102093864D01*
X169757135Y-102121090D01*
X169843791Y-102156984D01*
X169935786Y-102175283D01*
X170025535Y-102202508D01*
X170118870Y-102211701D01*
X170210866Y-102230000D01*
X174198000Y-102230000D01*
X174198001Y-105550855D01*
X173768000Y-105550855D01*
X173640578Y-105563405D01*
X173518052Y-105600573D01*
X173405132Y-105660930D01*
X173306157Y-105742157D01*
X173224930Y-105841132D01*
X173164573Y-105954052D01*
X173127405Y-106076578D01*
X173114855Y-106204000D01*
X173114855Y-110204000D01*
X173127405Y-110331422D01*
X173164573Y-110453948D01*
X173164601Y-110454000D01*
X173164573Y-110454052D01*
X173127405Y-110576578D01*
X173114855Y-110704000D01*
X173114855Y-112146000D01*
X156889214Y-112146000D01*
X156971211Y-111907577D01*
X157012483Y-111603466D01*
X156993633Y-111297146D01*
X156915385Y-111000389D01*
X156780746Y-110724601D01*
X156716894Y-110629039D01*
X156423830Y-110575827D01*
X155453657Y-111546000D01*
X155467799Y-111560142D01*
X155462142Y-111565799D01*
X155448000Y-111551657D01*
X155433858Y-111565799D01*
X155428201Y-111560142D01*
X155442343Y-111546000D01*
X154472170Y-110575827D01*
X154179106Y-110629039D01*
X154024598Y-110894207D01*
X153924789Y-111184423D01*
X153883517Y-111488534D01*
X153902367Y-111794854D01*
X153980615Y-112091611D01*
X154115254Y-112367399D01*
X154179106Y-112462961D01*
X154345203Y-112493119D01*
X154097997Y-112695997D01*
X154038498Y-112768497D01*
X153716995Y-113090000D01*
X149994000Y-113090000D01*
X149994000Y-111378835D01*
X150128973Y-111176833D01*
X150238277Y-110912949D01*
X150294000Y-110632813D01*
X150294000Y-110570170D01*
X154477827Y-110570170D01*
X155448000Y-111540343D01*
X156418173Y-110570170D01*
X156364961Y-110277106D01*
X156099793Y-110122598D01*
X155809577Y-110022789D01*
X155505466Y-109981517D01*
X155199146Y-110000367D01*
X154902389Y-110078615D01*
X154626601Y-110213254D01*
X154531039Y-110277106D01*
X154477827Y-110570170D01*
X150294000Y-110570170D01*
X150294000Y-110347187D01*
X150238277Y-110067051D01*
X150128973Y-109803167D01*
X149970289Y-109565679D01*
X149768321Y-109363711D01*
X149643039Y-109280000D01*
X150938332Y-109280000D01*
X150952967Y-109428594D01*
X150996311Y-109571478D01*
X151066696Y-109703160D01*
X151161419Y-109818581D01*
X151276840Y-109913304D01*
X151408522Y-109983689D01*
X151551406Y-110027033D01*
X151700000Y-110041668D01*
X152206500Y-110038000D01*
X152396000Y-109848500D01*
X152396000Y-108684000D01*
X152404000Y-108684000D01*
X152404000Y-109848500D01*
X152593500Y-110038000D01*
X153100000Y-110041668D01*
X153248594Y-110027033D01*
X153391478Y-109983689D01*
X153523160Y-109913304D01*
X153638581Y-109818581D01*
X153733304Y-109703160D01*
X153803689Y-109571478D01*
X153847033Y-109428594D01*
X153861668Y-109280000D01*
X153858000Y-108873500D01*
X153668500Y-108684000D01*
X152404000Y-108684000D01*
X152396000Y-108684000D01*
X151131500Y-108684000D01*
X150942000Y-108873500D01*
X150938332Y-109280000D01*
X149643039Y-109280000D01*
X149553242Y-109220000D01*
X149768321Y-109076289D01*
X149970289Y-108874321D01*
X150128973Y-108636833D01*
X150238277Y-108372949D01*
X150294000Y-108092813D01*
X150294000Y-107807187D01*
X150238277Y-107527051D01*
X150128973Y-107263167D01*
X149970289Y-107025679D01*
X149768321Y-106823711D01*
X149553242Y-106680000D01*
X149732835Y-106560000D01*
X150653655Y-106560000D01*
X151046855Y-106953200D01*
X151046855Y-107030001D01*
X151064209Y-107206196D01*
X151115603Y-107375619D01*
X151191173Y-107517001D01*
X151161419Y-107541419D01*
X151066696Y-107656840D01*
X150996311Y-107788522D01*
X150952967Y-107931406D01*
X150938332Y-108080000D01*
X150942000Y-108486500D01*
X151131500Y-108676000D01*
X152396000Y-108676000D01*
X152396000Y-108656000D01*
X152404000Y-108656000D01*
X152404000Y-108676000D01*
X153668500Y-108676000D01*
X153858000Y-108486500D01*
X153861668Y-108080000D01*
X153847033Y-107931406D01*
X153803689Y-107788522D01*
X153733304Y-107656840D01*
X153638581Y-107541419D01*
X153608827Y-107517001D01*
X153684397Y-107375619D01*
X153735791Y-107206196D01*
X153753145Y-107030001D01*
X153753145Y-106329999D01*
X153735791Y-106153804D01*
X153684397Y-105984381D01*
X153600938Y-105828239D01*
X153550000Y-105766171D01*
X153550000Y-104513829D01*
X153600938Y-104451761D01*
X153684397Y-104295619D01*
X153735791Y-104126196D01*
X153753145Y-103950001D01*
X153753145Y-103879489D01*
X158364854Y-108491199D01*
X158362017Y-108520000D01*
X158393875Y-108843456D01*
X158488223Y-109154483D01*
X158641438Y-109441126D01*
X158847629Y-109692371D01*
X159098874Y-109898562D01*
X159385517Y-110051777D01*
X159696544Y-110146125D01*
X159938948Y-110170000D01*
X163432958Y-110170000D01*
X163514000Y-110177982D01*
X163595042Y-110170000D01*
X163595052Y-110170000D01*
X163837456Y-110146125D01*
X163952771Y-110111145D01*
X164528500Y-110111145D01*
X164655922Y-110098595D01*
X164778448Y-110061427D01*
X164891368Y-110001070D01*
X164990343Y-109919843D01*
X165071570Y-109820868D01*
X165103336Y-109761438D01*
X165194875Y-109836562D01*
X165481518Y-109989777D01*
X165792545Y-110084125D01*
X166116000Y-110115983D01*
X166439456Y-110084125D01*
X166750483Y-109989777D01*
X167037126Y-109836562D01*
X167288371Y-109630371D01*
X167332680Y-109576380D01*
X167449323Y-109717834D01*
X167709024Y-109929950D01*
X168005116Y-110087325D01*
X168326221Y-110183912D01*
X168384469Y-110194310D01*
X168652000Y-110026495D01*
X168652000Y-108462000D01*
X168660000Y-108462000D01*
X168660000Y-110026495D01*
X168927531Y-110194310D01*
X168985779Y-110183912D01*
X169306884Y-110087325D01*
X169602976Y-109929950D01*
X169862677Y-109717834D01*
X170076006Y-109459128D01*
X170234765Y-109163775D01*
X170332853Y-108843125D01*
X170366500Y-108509500D01*
X170366500Y-108462000D01*
X168660000Y-108462000D01*
X168652000Y-108462000D01*
X168632000Y-108462000D01*
X168632000Y-108454000D01*
X168652000Y-108454000D01*
X168652000Y-106889505D01*
X168660000Y-106889505D01*
X168660000Y-108454000D01*
X170366500Y-108454000D01*
X170366500Y-108406500D01*
X170332853Y-108072875D01*
X170234765Y-107752225D01*
X170076006Y-107456872D01*
X169862677Y-107198166D01*
X169602976Y-106986050D01*
X169306884Y-106828675D01*
X168985779Y-106732088D01*
X168927531Y-106721690D01*
X168660000Y-106889505D01*
X168652000Y-106889505D01*
X168384469Y-106721690D01*
X168326221Y-106732088D01*
X168005116Y-106828675D01*
X167766000Y-106955767D01*
X167766000Y-104729041D01*
X167773982Y-104647999D01*
X167766000Y-104566957D01*
X167766000Y-104566948D01*
X167742125Y-104324544D01*
X167647777Y-104013517D01*
X167494562Y-103726874D01*
X167288371Y-103475629D01*
X167225413Y-103423961D01*
X163636838Y-99835387D01*
X163624984Y-99775791D01*
X163589090Y-99689135D01*
X163561864Y-99599383D01*
X163517651Y-99516666D01*
X163481758Y-99430013D01*
X163429651Y-99352029D01*
X163385436Y-99269309D01*
X163325933Y-99196805D01*
X163273826Y-99118821D01*
X163207504Y-99052499D01*
X163148003Y-98979997D01*
X163075501Y-98920496D01*
X163009179Y-98854174D01*
X162931195Y-98802067D01*
X162858691Y-98742564D01*
X162775971Y-98698349D01*
X162697987Y-98646242D01*
X162611334Y-98610349D01*
X162528617Y-98566136D01*
X162438865Y-98538910D01*
X162352209Y-98503016D01*
X162260214Y-98484717D01*
X162170465Y-98457492D01*
X162077130Y-98448299D01*
X161985134Y-98430000D01*
X155910866Y-98430000D01*
X155818870Y-98448299D01*
X155725535Y-98457492D01*
X155635786Y-98484717D01*
X155543791Y-98503016D01*
X155457135Y-98538910D01*
X155367383Y-98566136D01*
X155284666Y-98610349D01*
X155198013Y-98646242D01*
X155120029Y-98698349D01*
X155037309Y-98742564D01*
X154964805Y-98802067D01*
X154886821Y-98854174D01*
X154820499Y-98920496D01*
X154747997Y-98979997D01*
X154688496Y-99052499D01*
X154622174Y-99118821D01*
X154570067Y-99196805D01*
X154510564Y-99269309D01*
X154466349Y-99352029D01*
X154414242Y-99430013D01*
X154378349Y-99516666D01*
X154334136Y-99599383D01*
X154306910Y-99689135D01*
X154271016Y-99775791D01*
X154252717Y-99867786D01*
X154225492Y-99957535D01*
X154216299Y-100050870D01*
X154198000Y-100142866D01*
X154198000Y-100236663D01*
X154188807Y-100330000D01*
X154198000Y-100423337D01*
X154198000Y-100517134D01*
X154216299Y-100609130D01*
X154225492Y-100702465D01*
X154252717Y-100792214D01*
X154271016Y-100884209D01*
X154306910Y-100970865D01*
X154334136Y-101060617D01*
X154378349Y-101143334D01*
X154414242Y-101229987D01*
X154466349Y-101307971D01*
X154503133Y-101376789D01*
X153953125Y-100826781D01*
X153917107Y-100782893D01*
X153741997Y-100639184D01*
X153542215Y-100532398D01*
X153325439Y-100466640D01*
X153283347Y-100462494D01*
X153195619Y-100415603D01*
X153026196Y-100364209D01*
X152850001Y-100346855D01*
X151949999Y-100346855D01*
X151773804Y-100364209D01*
X151604381Y-100415603D01*
X151448239Y-100499062D01*
X151311380Y-100611380D01*
X151199062Y-100748239D01*
X151115603Y-100904381D01*
X151064209Y-101073804D01*
X151046855Y-101249999D01*
X151046855Y-101950001D01*
X151064209Y-102126196D01*
X151115603Y-102295619D01*
X151199062Y-102451761D01*
X151311380Y-102588620D01*
X151325246Y-102600000D01*
X151311380Y-102611380D01*
X151199062Y-102748239D01*
X151115603Y-102904381D01*
X151064209Y-103073804D01*
X151046855Y-103249999D01*
X151046855Y-103950001D01*
X151064209Y-104126196D01*
X151103891Y-104257009D01*
X151073518Y-104260000D01*
X149732835Y-104260000D01*
X149553242Y-104140000D01*
X149768321Y-103996289D01*
X149970289Y-103794321D01*
X150128973Y-103556833D01*
X150238277Y-103292949D01*
X150294000Y-103012813D01*
X150294000Y-102727187D01*
X150238277Y-102447051D01*
X150128973Y-102183167D01*
X149970289Y-101945679D01*
X149768321Y-101743711D01*
X149530833Y-101585027D01*
X149266949Y-101475723D01*
X149028672Y-101428326D01*
X147708000Y-100107656D01*
X147708000Y-99523320D01*
X147723126Y-99508194D01*
X147887283Y-99262517D01*
X148000356Y-98989534D01*
X148058000Y-98699737D01*
X148058000Y-98404263D01*
X148000356Y-98114466D01*
X147887283Y-97841483D01*
X147723126Y-97595806D01*
X147514194Y-97386874D01*
X147268517Y-97222717D01*
X146995534Y-97109644D01*
X146705737Y-97052000D01*
X146410263Y-97052000D01*
X146120466Y-97109644D01*
X145847483Y-97222717D01*
X145601806Y-97386874D01*
X145573195Y-97415485D01*
X145571689Y-97410522D01*
X145501304Y-97278840D01*
X145406581Y-97163419D01*
X145291160Y-97068696D01*
X145159478Y-96998311D01*
X145016594Y-96954967D01*
X144868000Y-96940332D01*
X144211500Y-96944000D01*
X144022000Y-97133500D01*
X144022000Y-98548000D01*
X144042000Y-98548000D01*
X144042000Y-98556000D01*
X144022000Y-98556000D01*
X144022000Y-99970500D01*
X144211500Y-100160000D01*
X144868000Y-100163668D01*
X145016594Y-100149033D01*
X145159478Y-100105689D01*
X145291160Y-100035304D01*
X145406581Y-99940581D01*
X145408001Y-99938851D01*
X145408001Y-100527509D01*
X145402437Y-100584000D01*
X145408001Y-100640492D01*
X145424641Y-100809439D01*
X145490399Y-101026215D01*
X145597185Y-101225997D01*
X145740894Y-101401107D01*
X145784774Y-101437118D01*
X147402326Y-103054672D01*
X147449723Y-103292949D01*
X147559027Y-103556833D01*
X147717711Y-103794321D01*
X147919679Y-103996289D01*
X148134758Y-104140000D01*
X147919679Y-104283711D01*
X147717711Y-104485679D01*
X147559027Y-104723167D01*
X147449723Y-104987051D01*
X147394000Y-105267187D01*
X147394000Y-105552813D01*
X147449723Y-105832949D01*
X147559027Y-106096833D01*
X147717711Y-106334321D01*
X147919679Y-106536289D01*
X148134758Y-106680000D01*
X147919679Y-106823711D01*
X147717711Y-107025679D01*
X147559027Y-107263167D01*
X147449723Y-107527051D01*
X147394000Y-107807187D01*
X147394000Y-108092813D01*
X147449723Y-108372949D01*
X147559027Y-108636833D01*
X147717711Y-108874321D01*
X147919679Y-109076289D01*
X148134758Y-109220000D01*
X147955165Y-109340000D01*
X147006791Y-109340000D01*
X146914260Y-109264062D01*
X146758119Y-109180603D01*
X146588695Y-109129209D01*
X146412500Y-109111855D01*
X145737500Y-109111855D01*
X145561305Y-109129209D01*
X145391881Y-109180603D01*
X145235740Y-109264062D01*
X145188673Y-109302689D01*
X145126081Y-109226419D01*
X145010660Y-109131696D01*
X144878978Y-109061311D01*
X144736094Y-109017967D01*
X144587500Y-109003332D01*
X144193500Y-109007000D01*
X144004000Y-109196500D01*
X144004000Y-110486000D01*
X144024000Y-110486000D01*
X144024000Y-110494000D01*
X144004000Y-110494000D01*
X144004000Y-111783500D01*
X144193500Y-111973000D01*
X144587500Y-111976668D01*
X144736094Y-111962033D01*
X144878978Y-111918689D01*
X145010660Y-111848304D01*
X145126081Y-111753581D01*
X145188673Y-111677311D01*
X145235740Y-111715938D01*
X145391881Y-111799397D01*
X145561305Y-111850791D01*
X145737500Y-111868145D01*
X146412500Y-111868145D01*
X146588695Y-111850791D01*
X146758119Y-111799397D01*
X146914260Y-111715938D01*
X147006791Y-111640000D01*
X147694000Y-111640000D01*
X147694001Y-113090000D01*
X133463145Y-113090000D01*
X133463145Y-112990000D01*
X133453667Y-112893771D01*
X133513689Y-112781478D01*
X133557033Y-112638594D01*
X133571668Y-112490000D01*
X133568000Y-110683500D01*
X133378500Y-110494000D01*
X130814000Y-110494000D01*
X130814000Y-110514000D01*
X130806000Y-110514000D01*
X130806000Y-110494000D01*
X128241500Y-110494000D01*
X128052000Y-110683500D01*
X128048332Y-112490000D01*
X127675000Y-112490000D01*
X127675000Y-108490000D01*
X128048332Y-108490000D01*
X128052000Y-110296500D01*
X128241500Y-110486000D01*
X130806000Y-110486000D01*
X130806000Y-107921500D01*
X130814000Y-107921500D01*
X130814000Y-110486000D01*
X133378500Y-110486000D01*
X133568000Y-110296500D01*
X133571076Y-108781422D01*
X134486000Y-109696346D01*
X134486001Y-110646027D01*
X134451603Y-110710381D01*
X134400209Y-110879804D01*
X134382855Y-111055999D01*
X134382855Y-111956001D01*
X134400209Y-112132196D01*
X134451603Y-112301619D01*
X134535062Y-112457761D01*
X134647380Y-112594620D01*
X134784239Y-112706938D01*
X134940381Y-112790397D01*
X135109804Y-112841791D01*
X135285999Y-112859145D01*
X135986001Y-112859145D01*
X136162196Y-112841791D01*
X136331619Y-112790397D01*
X136473001Y-112714827D01*
X136497419Y-112744581D01*
X136612840Y-112839304D01*
X136744522Y-112909689D01*
X136887406Y-112953033D01*
X137036000Y-112967668D01*
X137442500Y-112964000D01*
X137632000Y-112774500D01*
X137632000Y-111510000D01*
X137640000Y-111510000D01*
X137640000Y-112774500D01*
X137829500Y-112964000D01*
X138236000Y-112967668D01*
X138384594Y-112953033D01*
X138527478Y-112909689D01*
X138659160Y-112839304D01*
X138774581Y-112744581D01*
X138869304Y-112629160D01*
X138939689Y-112497478D01*
X138983033Y-112354594D01*
X138997668Y-112206000D01*
X138994000Y-111699500D01*
X138804500Y-111510000D01*
X137640000Y-111510000D01*
X137632000Y-111510000D01*
X137612000Y-111510000D01*
X137612000Y-111502000D01*
X137632000Y-111502000D01*
X137632000Y-110237500D01*
X137640000Y-110237500D01*
X137640000Y-111502000D01*
X138804500Y-111502000D01*
X138994000Y-111312500D01*
X138997668Y-110806000D01*
X138983033Y-110657406D01*
X138939689Y-110514522D01*
X138869304Y-110382840D01*
X138774581Y-110267419D01*
X138659160Y-110172696D01*
X138527478Y-110102311D01*
X138384594Y-110058967D01*
X138236000Y-110044332D01*
X137829500Y-110048000D01*
X137640000Y-110237500D01*
X137632000Y-110237500D01*
X137442500Y-110048000D01*
X137036000Y-110044332D01*
X136887406Y-110058967D01*
X136786000Y-110089729D01*
X136786000Y-109281983D01*
X136794406Y-109284533D01*
X136943000Y-109299168D01*
X137474500Y-109295500D01*
X137664000Y-109106000D01*
X137664000Y-107954000D01*
X137672000Y-107954000D01*
X137672000Y-109106000D01*
X137861500Y-109295500D01*
X138393000Y-109299168D01*
X138541594Y-109284533D01*
X138684478Y-109241189D01*
X138816160Y-109170804D01*
X138931581Y-109076081D01*
X139026304Y-108960660D01*
X139096689Y-108828978D01*
X139140033Y-108686094D01*
X139154668Y-108537500D01*
X139151000Y-108143500D01*
X138961500Y-107954000D01*
X137672000Y-107954000D01*
X137664000Y-107954000D01*
X136374500Y-107954000D01*
X136185423Y-108143077D01*
X133344145Y-105301801D01*
X133344145Y-105053000D01*
X133331595Y-104925578D01*
X133294427Y-104803052D01*
X133234070Y-104690132D01*
X133152843Y-104591157D01*
X133053868Y-104509930D01*
X132940948Y-104449573D01*
X132818422Y-104412405D01*
X132691000Y-104399855D01*
X131469000Y-104399855D01*
X131341578Y-104412405D01*
X131219052Y-104449573D01*
X131106132Y-104509930D01*
X131007157Y-104591157D01*
X130925930Y-104690132D01*
X130865573Y-104803052D01*
X130828405Y-104925578D01*
X130815855Y-105053000D01*
X130815855Y-106275000D01*
X130828405Y-106402422D01*
X130865573Y-106524948D01*
X130925930Y-106637868D01*
X131007157Y-106736843D01*
X131106132Y-106818070D01*
X131219052Y-106878427D01*
X131341578Y-106915595D01*
X131469000Y-106928145D01*
X131717801Y-106928145D01*
X132518579Y-107728924D01*
X131003500Y-107732000D01*
X130814000Y-107921500D01*
X130806000Y-107921500D01*
X130616500Y-107732000D01*
X128810000Y-107728332D01*
X128661406Y-107742967D01*
X128518522Y-107786311D01*
X128386840Y-107856696D01*
X128271419Y-107951419D01*
X128176696Y-108066840D01*
X128106311Y-108198522D01*
X128062967Y-108341406D01*
X128048332Y-108490000D01*
X127675000Y-108490000D01*
X127675000Y-100459802D01*
X130819000Y-100459802D01*
X130819000Y-100708198D01*
X130867460Y-100951820D01*
X130962517Y-101181307D01*
X131100518Y-101387840D01*
X131276160Y-101563482D01*
X131482693Y-101701483D01*
X131712180Y-101796540D01*
X131955802Y-101845000D01*
X132204198Y-101845000D01*
X132447820Y-101796540D01*
X132677307Y-101701483D01*
X132883840Y-101563482D01*
X133059482Y-101387840D01*
X133197483Y-101181307D01*
X133270422Y-101005217D01*
X133310816Y-100955997D01*
X133417602Y-100756215D01*
X133483360Y-100539439D01*
X133500000Y-100370492D01*
X133505564Y-100314000D01*
X133500000Y-100257508D01*
X133500000Y-99289028D01*
X133532894Y-99329109D01*
X133576776Y-99365122D01*
X138936653Y-104725000D01*
X138529585Y-104725000D01*
X138488619Y-104703103D01*
X138319195Y-104651709D01*
X138143000Y-104634355D01*
X138053701Y-104634355D01*
X135770124Y-102350780D01*
X135734107Y-102306893D01*
X135558997Y-102163184D01*
X135359215Y-102056398D01*
X135236038Y-102019033D01*
X135217307Y-102006517D01*
X134987820Y-101911460D01*
X134744198Y-101863000D01*
X134495802Y-101863000D01*
X134252180Y-101911460D01*
X134022693Y-102006517D01*
X133816160Y-102144518D01*
X133640518Y-102320160D01*
X133502517Y-102526693D01*
X133407460Y-102756180D01*
X133359000Y-102999802D01*
X133359000Y-103248198D01*
X133407460Y-103491820D01*
X133502517Y-103721307D01*
X133640518Y-103927840D01*
X133816160Y-104103482D01*
X134022693Y-104241483D01*
X134252180Y-104336540D01*
X134495802Y-104385000D01*
X134551656Y-104385000D01*
X136289855Y-106123201D01*
X136289855Y-106212500D01*
X136307209Y-106388695D01*
X136358603Y-106558119D01*
X136442062Y-106714260D01*
X136480689Y-106761327D01*
X136404419Y-106823919D01*
X136309696Y-106939340D01*
X136239311Y-107071022D01*
X136195967Y-107213906D01*
X136181332Y-107362500D01*
X136185000Y-107756500D01*
X136374500Y-107946000D01*
X137664000Y-107946000D01*
X137664000Y-107926000D01*
X137672000Y-107926000D01*
X137672000Y-107946000D01*
X138961500Y-107946000D01*
X139151000Y-107756500D01*
X139153335Y-107505680D01*
X139782326Y-108134672D01*
X139829723Y-108372949D01*
X139939027Y-108636833D01*
X140097711Y-108874321D01*
X140278330Y-109054940D01*
X140174052Y-109086573D01*
X140061132Y-109146930D01*
X139962157Y-109228157D01*
X139880930Y-109327132D01*
X139820573Y-109440052D01*
X139783405Y-109562578D01*
X139770855Y-109690000D01*
X139770855Y-111290000D01*
X139783405Y-111417422D01*
X139820573Y-111539948D01*
X139880930Y-111652868D01*
X139962157Y-111751843D01*
X140061132Y-111833070D01*
X140174052Y-111893427D01*
X140296578Y-111930595D01*
X140424000Y-111943145D01*
X142024000Y-111943145D01*
X142151422Y-111930595D01*
X142273948Y-111893427D01*
X142386868Y-111833070D01*
X142485843Y-111751843D01*
X142567070Y-111652868D01*
X142627427Y-111539948D01*
X142664595Y-111417422D01*
X142668811Y-111374617D01*
X142708811Y-111506478D01*
X142779196Y-111638160D01*
X142873919Y-111753581D01*
X142989340Y-111848304D01*
X143121022Y-111918689D01*
X143263906Y-111962033D01*
X143412500Y-111976668D01*
X143806500Y-111973000D01*
X143996000Y-111783500D01*
X143996000Y-110494000D01*
X143976000Y-110494000D01*
X143976000Y-110486000D01*
X143996000Y-110486000D01*
X143996000Y-109196500D01*
X143806500Y-109007000D01*
X143412500Y-109003332D01*
X143263906Y-109017967D01*
X143121022Y-109061311D01*
X142989340Y-109131696D01*
X142873919Y-109226419D01*
X142779196Y-109341840D01*
X142708811Y-109473522D01*
X142668811Y-109605383D01*
X142664595Y-109562578D01*
X142627427Y-109440052D01*
X142567070Y-109327132D01*
X142485843Y-109228157D01*
X142386868Y-109146930D01*
X142273948Y-109086573D01*
X142169670Y-109054940D01*
X142350289Y-108874321D01*
X142508973Y-108636833D01*
X142618277Y-108372949D01*
X142674000Y-108092813D01*
X142674000Y-107807187D01*
X142618277Y-107527051D01*
X142508973Y-107263167D01*
X142350289Y-107025679D01*
X142148321Y-106823711D01*
X141933242Y-106680000D01*
X142148321Y-106536289D01*
X142350289Y-106334321D01*
X142508973Y-106096833D01*
X142618277Y-105832949D01*
X142674000Y-105552813D01*
X142674000Y-105267187D01*
X142618277Y-104987051D01*
X142508973Y-104723167D01*
X142350289Y-104485679D01*
X142148321Y-104283711D01*
X142027633Y-104203070D01*
X142041461Y-104196319D01*
X142284506Y-104011355D01*
X142486796Y-103782530D01*
X142640558Y-103518637D01*
X142739882Y-103229817D01*
X142762188Y-103117675D01*
X142592494Y-102874000D01*
X141228000Y-102874000D01*
X141228000Y-102894000D01*
X141220000Y-102894000D01*
X141220000Y-102874000D01*
X141200000Y-102874000D01*
X141200000Y-102866000D01*
X141220000Y-102866000D01*
X141220000Y-101501505D01*
X141228000Y-101501505D01*
X141228000Y-102866000D01*
X142592494Y-102866000D01*
X142762188Y-102622325D01*
X142739882Y-102510183D01*
X142640558Y-102221363D01*
X142486796Y-101957470D01*
X142284506Y-101728645D01*
X142041461Y-101543681D01*
X141767002Y-101409687D01*
X141471675Y-101331812D01*
X141228000Y-101501505D01*
X141220000Y-101501505D01*
X140976325Y-101331812D01*
X140680998Y-101409687D01*
X140406539Y-101543681D01*
X140163494Y-101728645D01*
X139961204Y-101957470D01*
X139807442Y-102221363D01*
X139776290Y-102311948D01*
X136866342Y-99402000D01*
X142406332Y-99402000D01*
X142420967Y-99550594D01*
X142464311Y-99693478D01*
X142534696Y-99825160D01*
X142629419Y-99940581D01*
X142744840Y-100035304D01*
X142876522Y-100105689D01*
X143019406Y-100149033D01*
X143168000Y-100163668D01*
X143824500Y-100160000D01*
X144014000Y-99970500D01*
X144014000Y-98556000D01*
X142599500Y-98556000D01*
X142410000Y-98745500D01*
X142406332Y-99402000D01*
X136866342Y-99402000D01*
X135603145Y-98138803D01*
X135603145Y-97702000D01*
X142406332Y-97702000D01*
X142410000Y-98358500D01*
X142599500Y-98548000D01*
X144014000Y-98548000D01*
X144014000Y-97133500D01*
X143824500Y-96944000D01*
X143168000Y-96940332D01*
X143019406Y-96954967D01*
X142876522Y-96998311D01*
X142744840Y-97068696D01*
X142629419Y-97163419D01*
X142534696Y-97278840D01*
X142464311Y-97410522D01*
X142420967Y-97553406D01*
X142406332Y-97702000D01*
X135603145Y-97702000D01*
X135603145Y-97339999D01*
X135585791Y-97163804D01*
X135534397Y-96994381D01*
X135450938Y-96838239D01*
X135338620Y-96701380D01*
X135201761Y-96589062D01*
X135045619Y-96505603D01*
X134876196Y-96454209D01*
X134700001Y-96436855D01*
X133999999Y-96436855D01*
X133823804Y-96454209D01*
X133654381Y-96505603D01*
X133498239Y-96589062D01*
X133361380Y-96701380D01*
X133350000Y-96715246D01*
X133338620Y-96701380D01*
X133201761Y-96589062D01*
X133045619Y-96505603D01*
X132876196Y-96454209D01*
X132700001Y-96436855D01*
X131999999Y-96436855D01*
X131823804Y-96454209D01*
X131654381Y-96505603D01*
X131498239Y-96589062D01*
X131361380Y-96701380D01*
X131249062Y-96838239D01*
X131165603Y-96994381D01*
X131114209Y-97163804D01*
X131096855Y-97339999D01*
X131096855Y-98240001D01*
X131114209Y-98416196D01*
X131165603Y-98585619D01*
X131200000Y-98649972D01*
X131200001Y-99680677D01*
X131100518Y-99780160D01*
X130962517Y-99986693D01*
X130867460Y-100216180D01*
X130819000Y-100459802D01*
X127675000Y-100459802D01*
X127675000Y-95675000D01*
X179325001Y-95675000D01*
X179325000Y-118325000D01*
G37*
%TD.AperFunction*%
%TD*%
M02*
