M48
; DRILL file {KiCad 5.99.0+really5.1.12+dfsg1-1} date Mon 03 Jan 2022 02:28:11 PM PST
; FORMAT={-:-/ absolute / metric / decimal}
; #@! TF.CreationDate,2022-01-03T14:28:11-08:00
; #@! TF.GenerationSoftware,Kicad,Pcbnew,5.99.0+really5.1.12+dfsg1-1
; #@! TF.FileFunction,Plated,1,2,PTH
FMAT,2
METRIC
T1C0.714
T2C0.800
T3C1.000
T4C1.200
T5C1.250
%
G90
G05
T1
X132.08Y-100.584
X132.08Y-105.664
X134.62Y-103.124
T2
X141.224Y-102.87
X141.224Y-105.41
X141.224Y-107.95
X141.224Y-110.49
X148.844Y-102.87
X148.844Y-105.41
X148.844Y-107.95
X148.844Y-110.49
X155.448Y-111.546
X155.448Y-114.046
T3
X144.018Y-98.552
X146.558Y-98.552
T4
X163.576Y-108.458
X166.116Y-108.458
X168.656Y-108.458
T5
X156.098Y-100.33
X161.798Y-100.33
X170.398Y-100.33
X176.098Y-100.33
T0
M30
